<svg width="603" height="163" viewBox="0 0 603 163" fill="none" xmlns="http://www.w3.org/2000/svg">
<mask id="path-1-outside-1_3_219" maskUnits="userSpaceOnUse" x="-2" y="1" width="603" height="54" fill="black">
<rect fill="white" x="-2" y="1" width="603" height="54"/>
<path d="M5.076 52.594C4.428 52.594 3.744 52.54 3.024 52.432C2.34 52.324 1.584 52.18 0.756 52L1.296 44.602C1.8 44.746 2.322 44.818 2.862 44.818C4.338 44.818 5.49 44.224 6.318 43.036C7.146 41.812 7.74 40.066 8.1 37.798C8.46 35.53 8.694 32.776 8.802 29.536L9.342 14.2H38.394V52H29.754V19.33L31.752 21.328H15.066L16.848 19.222L16.524 29.212C16.416 32.92 16.164 36.214 15.768 39.094C15.372 41.974 14.76 44.422 13.932 46.438C13.104 48.454 11.97 49.984 10.53 51.028C9.09 52.072 7.272 52.594 5.076 52.594ZM49.1307 44.872C51.2187 45.484 52.9647 45.664 54.3687 45.412C55.8087 45.124 57.0867 44.116 58.2027 42.388L60.0387 39.634L60.8487 38.716L73.3767 14.2H81.9627L65.8707 44.116C64.4307 46.816 62.7207 48.886 60.7407 50.326C58.7967 51.766 56.6547 52.576 54.3147 52.756C51.9747 52.972 49.5447 52.558 47.0247 51.514L49.1307 44.872ZM60.6867 46.006L43.6227 14.2H52.9647L65.4927 39.58L60.6867 46.006ZM110.563 37.906C108.691 38.662 106.891 39.238 105.163 39.634C103.435 39.994 101.779 40.174 100.195 40.174C95.1189 40.174 91.2309 38.968 88.5309 36.556C85.8309 34.108 84.4809 30.598 84.4809 26.026V14.2H93.1209V25.054C93.1209 27.646 93.8229 29.608 95.2269 30.94C96.6309 32.236 98.6289 32.884 101.221 32.884C102.877 32.884 104.479 32.704 106.027 32.344C107.575 31.948 109.015 31.39 110.347 30.67L110.563 37.906ZM109.321 52V14.2H117.961V52H109.321ZM149.93 44.872L147.986 46.87V14.2H156.68V46.87L154.628 44.872H170.612L168.56 46.87V14.2H177.254V52H127.358V14.2H136.052V46.87L134.054 44.872H149.93ZM186.632 52V14.2H195.326V38.824L213.362 14.2H221.57V52H212.93V27.43L194.894 52H186.632ZM230.981 52V14.2H239.675V38.824L257.711 14.2H265.919V52H257.279V27.43L239.243 52H230.981ZM248.423 11.77C244.823 11.77 242.177 11.05 240.485 9.61C238.829 8.17 237.983 6.136 237.947 3.508H243.941C243.977 4.804 244.355 5.794 245.075 6.478C245.831 7.126 246.947 7.45 248.423 7.45C249.863 7.45 250.961 7.126 251.717 6.478C252.473 5.794 252.869 4.804 252.905 3.508H258.899C258.863 6.136 257.999 8.17 256.307 9.61C254.615 11.05 251.987 11.77 248.423 11.77ZM290.624 52V14.2H306.986C310.37 14.2 313.286 14.758 315.734 15.874C318.182 16.954 320.072 18.52 321.404 20.572C322.736 22.624 323.402 25.072 323.402 27.916C323.402 30.724 322.736 33.154 321.404 35.206C320.072 37.258 318.182 38.842 315.734 39.958C313.286 41.038 310.37 41.578 306.986 41.578H295.484L299.372 37.636V52H290.624ZM299.372 38.608L295.484 34.45H306.5C309.2 34.45 311.216 33.874 312.548 32.722C313.88 31.57 314.546 29.968 314.546 27.916C314.546 25.828 313.88 24.208 312.548 23.056C311.216 21.904 309.2 21.328 306.5 21.328H295.484L299.372 17.17V38.608ZM337.219 29.428H355.417V36.232H337.219V29.428ZM337.867 44.98H358.441V52H329.173V14.2H357.739V21.22H337.867V44.98ZM383.381 52.648C380.465 52.648 377.747 52.18 375.227 51.244C372.743 50.272 370.583 48.904 368.747 47.14C366.911 45.376 365.471 43.306 364.427 40.93C363.419 38.554 362.915 35.944 362.915 33.1C362.915 30.256 363.419 27.646 364.427 25.27C365.471 22.894 366.911 20.824 368.747 19.06C370.619 17.296 372.797 15.946 375.281 15.01C377.765 14.038 380.483 13.552 383.435 13.552C386.711 13.552 389.663 14.128 392.291 15.28C394.955 16.396 397.187 18.052 398.987 20.248L393.371 25.432C392.075 23.956 390.635 22.858 389.051 22.138C387.467 21.382 385.739 21.004 383.867 21.004C382.103 21.004 380.483 21.292 379.007 21.868C377.531 22.444 376.253 23.272 375.173 24.352C374.093 25.432 373.247 26.71 372.635 28.186C372.059 29.662 371.771 31.3 371.771 33.1C371.771 34.9 372.059 36.538 372.635 38.014C373.247 39.49 374.093 40.768 375.173 41.848C376.253 42.928 377.531 43.756 379.007 44.332C380.483 44.908 382.103 45.196 383.867 45.196C385.739 45.196 387.467 44.836 389.051 44.116C390.635 43.36 392.075 42.226 393.371 40.714L398.987 45.898C397.187 48.094 394.955 49.768 392.291 50.92C389.663 52.072 386.693 52.648 383.381 52.648ZM412.473 52V19.33L414.471 21.328H400.431V14.2H433.209V21.328H419.169L421.113 19.33V52H412.473ZM456.265 52.648C453.277 52.648 450.505 52.162 447.949 51.19C445.429 50.218 443.233 48.85 441.361 47.086C439.525 45.322 438.085 43.252 437.041 40.876C436.033 38.5 435.529 35.908 435.529 33.1C435.529 30.292 436.033 27.7 437.041 25.324C438.085 22.948 439.543 20.878 441.415 19.114C443.287 17.35 445.483 15.982 448.003 15.01C450.523 14.038 453.259 13.552 456.211 13.552C459.199 13.552 461.935 14.038 464.419 15.01C466.939 15.982 469.117 17.35 470.953 19.114C472.825 20.878 474.283 22.948 475.327 25.324C476.371 27.664 476.893 30.256 476.893 33.1C476.893 35.908 476.371 38.518 475.327 40.93C474.283 43.306 472.825 45.376 470.953 47.14C469.117 48.868 466.939 50.218 464.419 51.19C461.935 52.162 459.217 52.648 456.265 52.648ZM456.211 45.196C457.903 45.196 459.451 44.908 460.855 44.332C462.295 43.756 463.555 42.928 464.635 41.848C465.715 40.768 466.543 39.49 467.119 38.014C467.731 36.538 468.037 34.9 468.037 33.1C468.037 31.3 467.731 29.662 467.119 28.186C466.543 26.71 465.715 25.432 464.635 24.352C463.591 23.272 462.349 22.444 460.909 21.868C459.469 21.292 457.903 21.004 456.211 21.004C454.519 21.004 452.953 21.292 451.513 21.868C450.109 22.444 448.867 23.272 447.787 24.352C446.707 25.432 445.861 26.71 445.249 28.186C444.673 29.662 444.385 31.3 444.385 33.1C444.385 34.864 444.673 36.502 445.249 38.014C445.861 39.49 446.689 40.768 447.733 41.848C448.813 42.928 450.073 43.756 451.513 44.332C452.953 44.908 454.519 45.196 456.211 45.196ZM483.632 52V14.2H499.994C503.378 14.2 506.294 14.758 508.742 15.874C511.19 16.954 513.08 18.52 514.412 20.572C515.744 22.624 516.41 25.072 516.41 27.916C516.41 30.724 515.744 33.154 514.412 35.206C513.08 37.258 511.19 38.842 508.742 39.958C506.294 41.038 503.378 41.578 499.994 41.578H488.492L492.38 37.636V52H483.632ZM492.38 38.608L488.492 34.45H499.508C502.208 34.45 504.224 33.874 505.556 32.722C506.888 31.57 507.554 29.968 507.554 27.916C507.554 25.828 506.888 24.208 505.556 23.056C504.224 21.904 502.208 21.328 499.508 21.328H488.492L492.38 17.17V38.608ZM516.016 52L532.864 14.2H541.504L558.406 52H549.226L535.402 18.628H538.858L524.98 52H516.016ZM524.44 43.9L526.762 37.258H546.202L548.578 43.9H524.44ZM589.339 14.2H598.087V52H589.339V14.2ZM572.167 52H563.419V14.2H572.167V52ZM589.987 36.502H571.519V29.104H589.987V36.502Z"/>
</mask>
<path d="M5.076 52.594C4.428 52.594 3.744 52.54 3.024 52.432C2.34 52.324 1.584 52.18 0.756 52L1.296 44.602C1.8 44.746 2.322 44.818 2.862 44.818C4.338 44.818 5.49 44.224 6.318 43.036C7.146 41.812 7.74 40.066 8.1 37.798C8.46 35.53 8.694 32.776 8.802 29.536L9.342 14.2H38.394V52H29.754V19.33L31.752 21.328H15.066L16.848 19.222L16.524 29.212C16.416 32.92 16.164 36.214 15.768 39.094C15.372 41.974 14.76 44.422 13.932 46.438C13.104 48.454 11.97 49.984 10.53 51.028C9.09 52.072 7.272 52.594 5.076 52.594ZM49.1307 44.872C51.2187 45.484 52.9647 45.664 54.3687 45.412C55.8087 45.124 57.0867 44.116 58.2027 42.388L60.0387 39.634L60.8487 38.716L73.3767 14.2H81.9627L65.8707 44.116C64.4307 46.816 62.7207 48.886 60.7407 50.326C58.7967 51.766 56.6547 52.576 54.3147 52.756C51.9747 52.972 49.5447 52.558 47.0247 51.514L49.1307 44.872ZM60.6867 46.006L43.6227 14.2H52.9647L65.4927 39.58L60.6867 46.006ZM110.563 37.906C108.691 38.662 106.891 39.238 105.163 39.634C103.435 39.994 101.779 40.174 100.195 40.174C95.1189 40.174 91.2309 38.968 88.5309 36.556C85.8309 34.108 84.4809 30.598 84.4809 26.026V14.2H93.1209V25.054C93.1209 27.646 93.8229 29.608 95.2269 30.94C96.6309 32.236 98.6289 32.884 101.221 32.884C102.877 32.884 104.479 32.704 106.027 32.344C107.575 31.948 109.015 31.39 110.347 30.67L110.563 37.906ZM109.321 52V14.2H117.961V52H109.321ZM149.93 44.872L147.986 46.87V14.2H156.68V46.87L154.628 44.872H170.612L168.56 46.87V14.2H177.254V52H127.358V14.2H136.052V46.87L134.054 44.872H149.93ZM186.632 52V14.2H195.326V38.824L213.362 14.2H221.57V52H212.93V27.43L194.894 52H186.632ZM230.981 52V14.2H239.675V38.824L257.711 14.2H265.919V52H257.279V27.43L239.243 52H230.981ZM248.423 11.77C244.823 11.77 242.177 11.05 240.485 9.61C238.829 8.17 237.983 6.136 237.947 3.508H243.941C243.977 4.804 244.355 5.794 245.075 6.478C245.831 7.126 246.947 7.45 248.423 7.45C249.863 7.45 250.961 7.126 251.717 6.478C252.473 5.794 252.869 4.804 252.905 3.508H258.899C258.863 6.136 257.999 8.17 256.307 9.61C254.615 11.05 251.987 11.77 248.423 11.77ZM290.624 52V14.2H306.986C310.37 14.2 313.286 14.758 315.734 15.874C318.182 16.954 320.072 18.52 321.404 20.572C322.736 22.624 323.402 25.072 323.402 27.916C323.402 30.724 322.736 33.154 321.404 35.206C320.072 37.258 318.182 38.842 315.734 39.958C313.286 41.038 310.37 41.578 306.986 41.578H295.484L299.372 37.636V52H290.624ZM299.372 38.608L295.484 34.45H306.5C309.2 34.45 311.216 33.874 312.548 32.722C313.88 31.57 314.546 29.968 314.546 27.916C314.546 25.828 313.88 24.208 312.548 23.056C311.216 21.904 309.2 21.328 306.5 21.328H295.484L299.372 17.17V38.608ZM337.219 29.428H355.417V36.232H337.219V29.428ZM337.867 44.98H358.441V52H329.173V14.2H357.739V21.22H337.867V44.98ZM383.381 52.648C380.465 52.648 377.747 52.18 375.227 51.244C372.743 50.272 370.583 48.904 368.747 47.14C366.911 45.376 365.471 43.306 364.427 40.93C363.419 38.554 362.915 35.944 362.915 33.1C362.915 30.256 363.419 27.646 364.427 25.27C365.471 22.894 366.911 20.824 368.747 19.06C370.619 17.296 372.797 15.946 375.281 15.01C377.765 14.038 380.483 13.552 383.435 13.552C386.711 13.552 389.663 14.128 392.291 15.28C394.955 16.396 397.187 18.052 398.987 20.248L393.371 25.432C392.075 23.956 390.635 22.858 389.051 22.138C387.467 21.382 385.739 21.004 383.867 21.004C382.103 21.004 380.483 21.292 379.007 21.868C377.531 22.444 376.253 23.272 375.173 24.352C374.093 25.432 373.247 26.71 372.635 28.186C372.059 29.662 371.771 31.3 371.771 33.1C371.771 34.9 372.059 36.538 372.635 38.014C373.247 39.49 374.093 40.768 375.173 41.848C376.253 42.928 377.531 43.756 379.007 44.332C380.483 44.908 382.103 45.196 383.867 45.196C385.739 45.196 387.467 44.836 389.051 44.116C390.635 43.36 392.075 42.226 393.371 40.714L398.987 45.898C397.187 48.094 394.955 49.768 392.291 50.92C389.663 52.072 386.693 52.648 383.381 52.648ZM412.473 52V19.33L414.471 21.328H400.431V14.2H433.209V21.328H419.169L421.113 19.33V52H412.473ZM456.265 52.648C453.277 52.648 450.505 52.162 447.949 51.19C445.429 50.218 443.233 48.85 441.361 47.086C439.525 45.322 438.085 43.252 437.041 40.876C436.033 38.5 435.529 35.908 435.529 33.1C435.529 30.292 436.033 27.7 437.041 25.324C438.085 22.948 439.543 20.878 441.415 19.114C443.287 17.35 445.483 15.982 448.003 15.01C450.523 14.038 453.259 13.552 456.211 13.552C459.199 13.552 461.935 14.038 464.419 15.01C466.939 15.982 469.117 17.35 470.953 19.114C472.825 20.878 474.283 22.948 475.327 25.324C476.371 27.664 476.893 30.256 476.893 33.1C476.893 35.908 476.371 38.518 475.327 40.93C474.283 43.306 472.825 45.376 470.953 47.14C469.117 48.868 466.939 50.218 464.419 51.19C461.935 52.162 459.217 52.648 456.265 52.648ZM456.211 45.196C457.903 45.196 459.451 44.908 460.855 44.332C462.295 43.756 463.555 42.928 464.635 41.848C465.715 40.768 466.543 39.49 467.119 38.014C467.731 36.538 468.037 34.9 468.037 33.1C468.037 31.3 467.731 29.662 467.119 28.186C466.543 26.71 465.715 25.432 464.635 24.352C463.591 23.272 462.349 22.444 460.909 21.868C459.469 21.292 457.903 21.004 456.211 21.004C454.519 21.004 452.953 21.292 451.513 21.868C450.109 22.444 448.867 23.272 447.787 24.352C446.707 25.432 445.861 26.71 445.249 28.186C444.673 29.662 444.385 31.3 444.385 33.1C444.385 34.864 444.673 36.502 445.249 38.014C445.861 39.49 446.689 40.768 447.733 41.848C448.813 42.928 450.073 43.756 451.513 44.332C452.953 44.908 454.519 45.196 456.211 45.196ZM483.632 52V14.2H499.994C503.378 14.2 506.294 14.758 508.742 15.874C511.19 16.954 513.08 18.52 514.412 20.572C515.744 22.624 516.41 25.072 516.41 27.916C516.41 30.724 515.744 33.154 514.412 35.206C513.08 37.258 511.19 38.842 508.742 39.958C506.294 41.038 503.378 41.578 499.994 41.578H488.492L492.38 37.636V52H483.632ZM492.38 38.608L488.492 34.45H499.508C502.208 34.45 504.224 33.874 505.556 32.722C506.888 31.57 507.554 29.968 507.554 27.916C507.554 25.828 506.888 24.208 505.556 23.056C504.224 21.904 502.208 21.328 499.508 21.328H488.492L492.38 17.17V38.608ZM516.016 52L532.864 14.2H541.504L558.406 52H549.226L535.402 18.628H538.858L524.98 52H516.016ZM524.44 43.9L526.762 37.258H546.202L548.578 43.9H524.44ZM589.339 14.2H598.087V52H589.339V14.2ZM572.167 52H563.419V14.2H572.167V52ZM589.987 36.502H571.519V29.104H589.987V36.502Z" fill="white"/>
<path d="M3.024 52.432L2.71207 54.4075L2.71969 54.4087L2.72732 54.4099L3.024 52.432ZM0.756 52L-1.23869 51.8544L-1.36506 53.5856L0.331141 53.9544L0.756 52ZM1.296 44.602L1.84544 42.679L-0.519629 42.0032L-0.698693 44.4564L1.296 44.602ZM6.318 43.036L7.9588 44.1796L7.96676 44.1682L7.97457 44.1566L6.318 43.036ZM8.1 37.798L6.12473 37.4845L8.1 37.798ZM8.802 29.536L6.80324 29.4656L6.80311 29.4694L8.802 29.536ZM9.342 14.2V12.2H7.41118L7.34324 14.1296L9.342 14.2ZM38.394 14.2H40.394V12.2H38.394V14.2ZM38.394 52V54H40.394V52H38.394ZM29.754 52H27.754V54H29.754V52ZM29.754 19.33L31.1682 17.9158L27.754 14.5016V19.33H29.754ZM31.752 21.328V23.328H36.5804L33.1662 19.9138L31.752 21.328ZM15.066 21.328L13.5392 20.0361L10.7538 23.328H15.066V21.328ZM16.848 19.222L18.8469 19.2868L19.0332 13.5432L15.3212 17.9301L16.848 19.222ZM16.524 29.212L14.525 29.1472L14.5248 29.1538L16.524 29.212ZM15.768 39.094L17.7494 39.3664L15.768 39.094ZM13.932 46.438L12.082 45.6782L13.932 46.438ZM10.53 51.028L9.35607 49.4088L10.53 51.028ZM5.076 50.594C4.53857 50.594 3.95428 50.5492 3.32068 50.4541L2.72732 54.4099C3.53372 54.5308 4.31743 54.594 5.076 54.594V50.594ZM3.33593 50.4565C2.697 50.3556 1.97934 50.2192 1.18086 50.0456L0.331141 53.9544C1.18866 54.1408 1.983 54.2924 2.71207 54.4075L3.33593 50.4565ZM2.75069 52.1456L3.29069 44.7476L-0.698693 44.4564L-1.23869 51.8544L2.75069 52.1456ZM0.746557 46.525C1.43459 46.7216 2.14182 46.818 2.862 46.818V42.818C2.50218 42.818 2.16541 42.7704 1.84544 42.679L0.746557 46.525ZM2.862 46.818C4.977 46.818 6.74827 45.9164 7.9588 44.1796L4.6772 41.8924C4.23173 42.5316 3.699 42.818 2.862 42.818V46.818ZM7.97457 44.1566C9.03229 42.593 9.69223 40.5247 10.0753 38.1115L6.12473 37.4845C5.78777 39.6073 5.25971 41.031 4.66143 41.9154L7.97457 44.1566ZM10.0753 38.1115C10.4523 35.7362 10.6912 32.8946 10.8009 29.6026L6.80311 29.4694C6.69684 32.6574 6.46769 35.3238 6.12473 37.4845L10.0753 38.1115ZM10.8008 29.6064L11.3408 14.2704L7.34324 14.1296L6.80324 29.4656L10.8008 29.6064ZM9.342 16.2H38.394V12.2H9.342V16.2ZM36.394 14.2V52H40.394V14.2H36.394ZM38.394 50H29.754V54H38.394V50ZM31.754 52V19.33H27.754V52H31.754ZM28.3398 20.7442L30.3378 22.7422L33.1662 19.9138L31.1682 17.9158L28.3398 20.7442ZM31.752 19.328H15.066V23.328H31.752V19.328ZM16.5928 22.6199L18.3748 20.5139L15.3212 17.9301L13.5392 20.0361L16.5928 22.6199ZM14.8491 19.1572L14.5251 29.1472L18.523 29.2768L18.8469 19.2868L14.8491 19.1572ZM14.5248 29.1538C14.4184 32.8086 14.1706 36.0288 13.7866 38.8216L17.7494 39.3664C18.1574 36.3992 18.4136 33.0314 18.5232 29.2702L14.5248 29.1538ZM13.7866 38.8216C13.4065 41.5861 12.8285 43.8604 12.082 45.6782L15.782 47.1978C16.6915 44.9836 17.3375 42.3619 17.7494 39.3664L13.7866 38.8216ZM12.082 45.6782C11.3633 47.428 10.434 48.6273 9.35607 49.4088L11.7039 52.6472C13.506 51.3407 14.8447 49.48 15.782 47.1978L12.082 45.6782ZM9.35607 49.4088C8.33066 50.1522 6.95077 50.594 5.076 50.594V54.594C7.59323 54.594 9.84934 53.9918 11.7039 52.6472L9.35607 49.4088ZM49.1307 44.872L49.6933 42.9527L47.8156 42.4024L47.2243 44.2675L49.1307 44.872ZM54.3687 45.412L54.722 47.3805L54.7415 47.377L54.761 47.3732L54.3687 45.412ZM58.2027 42.388L56.5386 41.2786L56.5305 41.2907L56.5226 41.3029L58.2027 42.388ZM60.0387 39.634L58.539 38.3108L58.4496 38.4121L58.3746 38.5246L60.0387 39.634ZM60.8487 38.716L62.3484 40.0392L62.515 39.8504L62.6297 39.6261L60.8487 38.716ZM73.3767 14.2V12.2H72.1527L71.5958 13.2899L73.3767 14.2ZM81.9627 14.2L83.7241 15.1474L85.3095 12.2H81.9627V14.2ZM65.8707 44.116L64.1094 43.1686L64.106 43.1748L65.8707 44.116ZM60.7407 50.326L59.5644 48.7085L59.5573 48.7137L59.5503 48.7189L60.7407 50.326ZM54.3147 52.756L54.1613 50.7619L54.1461 50.7631L54.1309 50.7645L54.3147 52.756ZM47.0247 51.514L45.1183 50.9095L44.5635 52.6592L46.2592 53.3617L47.0247 51.514ZM60.6867 46.006L58.9243 46.9515L60.4083 49.7176L62.2883 47.2038L60.6867 46.006ZM43.6227 14.2V12.2H40.2801L41.8603 15.1455L43.6227 14.2ZM52.9647 14.2L54.7581 13.3147L54.2079 12.2H52.9647V14.2ZM65.4927 39.58L67.0943 40.7778L67.8293 39.7951L67.2861 38.6947L65.4927 39.58ZM48.5682 46.7913C50.8115 47.4488 52.8948 47.7085 54.722 47.3805L54.0154 43.4435C53.0346 43.6195 51.626 43.5192 49.6933 42.9527L48.5682 46.7913ZM54.761 47.3732C56.9142 46.9425 58.5933 45.4696 59.8828 43.473L56.5226 41.3029C55.5801 42.7624 54.7033 43.3055 53.9765 43.4508L54.761 47.3732ZM59.8668 43.4974L61.7028 40.7434L58.3746 38.5246L56.5386 41.2786L59.8668 43.4974ZM61.5384 40.9572L62.3484 40.0392L59.349 37.3928L58.539 38.3108L61.5384 40.9572ZM62.6297 39.6261L75.1577 15.1101L71.5958 13.2899L59.0678 37.8059L62.6297 39.6261ZM73.3767 16.2H81.9627V12.2H73.3767V16.2ZM80.2014 13.2526L64.1094 43.1686L67.6321 45.0634L83.7241 15.1474L80.2014 13.2526ZM64.106 43.1748C62.7737 45.6728 61.2463 47.4853 59.5644 48.7085L61.9171 51.9435C64.1952 50.2867 66.0877 47.9592 67.6354 45.0572L64.106 43.1748ZM59.5503 48.7189C57.8988 49.9422 56.1141 50.6117 54.1613 50.7619L54.4681 54.7501C57.1953 54.5403 59.6946 53.5898 61.9312 51.9331L59.5503 48.7189ZM54.1309 50.7645C52.1627 50.9461 50.0585 50.606 47.7902 49.6663L46.2592 53.3617C49.0309 54.51 51.7867 54.9979 54.4986 54.7475L54.1309 50.7645ZM48.9312 52.1185L51.0372 45.4765L47.2243 44.2675L45.1183 50.9095L48.9312 52.1185ZM62.4491 45.0605L45.3851 13.2545L41.8603 15.1455L58.9243 46.9515L62.4491 45.0605ZM43.6227 16.2H52.9647V12.2H43.6227V16.2ZM51.1713 15.0853L63.6993 40.4653L67.2861 38.6947L54.7581 13.3147L51.1713 15.0853ZM63.8911 38.3822L59.0851 44.8082L62.2883 47.2038L67.0943 40.7778L63.8911 38.3822ZM110.563 37.906L111.312 39.7605L112.604 39.2388L112.562 37.8463L110.563 37.906ZM105.163 39.634L105.571 41.592L105.59 41.5879L105.61 41.5835L105.163 39.634ZM88.5309 36.556L87.1875 38.0377L87.193 38.0426L87.1985 38.0475L88.5309 36.556ZM84.4809 14.2V12.2H82.4809V14.2H84.4809ZM93.1209 14.2H95.1209V12.2H93.1209V14.2ZM95.2269 30.94L93.8504 32.3909L93.8603 32.4003L93.8703 32.4096L95.2269 30.94ZM106.027 32.344L106.48 34.292L106.501 34.287L106.523 34.2816L106.027 32.344ZM110.347 30.67L112.346 30.6103L112.249 27.3682L109.396 28.9106L110.347 30.67ZM109.321 52H107.321V54H109.321V52ZM109.321 14.2V12.2H107.321V14.2H109.321ZM117.961 14.2H119.961V12.2H117.961V14.2ZM117.961 52V54H119.961V52H117.961ZM109.814 36.0515C108.027 36.7733 106.328 37.3151 104.716 37.6845L105.61 41.5835C107.454 41.1609 109.355 40.5508 111.312 39.7605L109.814 36.0515ZM104.755 37.676C103.146 38.0112 101.627 38.174 100.195 38.174V42.174C101.93 42.174 103.724 41.9768 105.571 41.592L104.755 37.676ZM100.195 38.174C95.4133 38.174 92.0724 37.0379 89.8633 35.0645L87.1985 38.0475C90.3894 40.8981 94.8245 42.174 100.195 42.174V38.174ZM89.8743 35.0743C87.6943 33.0978 86.4809 30.1875 86.4809 26.026H82.4809C82.4809 31.0085 83.9675 35.1182 87.1875 38.0377L89.8743 35.0743ZM86.4809 26.026V14.2H82.4809V26.026H86.4809ZM84.4809 16.2H93.1209V12.2H84.4809V16.2ZM91.1209 14.2V25.054H95.1209V14.2H91.1209ZM91.1209 25.054C91.1209 28.0011 91.9268 30.566 93.8504 32.3909L96.6034 29.4891C95.719 28.65 95.1209 27.2909 95.1209 25.054H91.1209ZM93.8703 32.4096C95.7586 34.1527 98.308 34.884 101.221 34.884V30.884C98.9498 30.884 97.5032 30.3193 96.5835 29.4704L93.8703 32.4096ZM101.221 34.884C103.023 34.884 104.777 34.688 106.48 34.292L105.574 30.396C104.18 30.72 102.731 30.884 101.221 30.884V34.884ZM106.523 34.2816C108.22 33.8473 109.814 33.2314 111.298 32.4294L109.396 28.9106C108.216 29.5486 106.929 30.0487 105.531 30.4064L106.523 34.2816ZM108.348 30.7297L108.564 37.9657L112.562 37.8463L112.346 30.6103L108.348 30.7297ZM111.321 52V14.2H107.321V52H111.321ZM109.321 16.2H117.961V12.2H109.321V16.2ZM115.961 14.2V52H119.961V14.2H115.961ZM117.961 50H109.321V54H117.961V50ZM149.93 44.872L151.364 46.2667L154.667 42.872H149.93V44.872ZM147.986 46.87H145.986V51.7935L149.42 48.2647L147.986 46.87ZM147.986 14.2V12.2H145.986V14.2H147.986ZM156.68 14.2H158.68V12.2H156.68V14.2ZM156.68 46.87L155.285 48.3029L158.68 51.6088V46.87H156.68ZM154.628 44.872V42.872H149.707L153.233 46.3049L154.628 44.872ZM170.612 44.872L172.007 46.3049L175.533 42.872H170.612V44.872ZM168.56 46.87H166.56V51.6088L169.955 48.3029L168.56 46.87ZM168.56 14.2V12.2H166.56V14.2H168.56ZM177.254 14.2H179.254V12.2H177.254V14.2ZM177.254 52V54H179.254V52H177.254ZM127.358 52H125.358V54H127.358V52ZM127.358 14.2V12.2H125.358V14.2H127.358ZM136.052 14.2H138.052V12.2H136.052V14.2ZM136.052 46.87L134.638 48.2842L138.052 51.6984V46.87H136.052ZM134.054 44.872V42.872H129.226L132.64 46.2862L134.054 44.872ZM148.497 43.4773L146.553 45.4753L149.42 48.2647L151.364 46.2667L148.497 43.4773ZM149.986 46.87V14.2H145.986V46.87H149.986ZM147.986 16.2H156.68V12.2H147.986V16.2ZM154.68 14.2V46.87H158.68V14.2H154.68ZM158.075 45.4371L156.023 43.4391L153.233 46.3049L155.285 48.3029L158.075 45.4371ZM154.628 46.872H170.612V42.872H154.628V46.872ZM169.217 43.4391L167.165 45.4371L169.955 48.3029L172.007 46.3049L169.217 43.4391ZM170.56 46.87V14.2H166.56V46.87H170.56ZM168.56 16.2H177.254V12.2H168.56V16.2ZM175.254 14.2V52H179.254V14.2H175.254ZM177.254 50H127.358V54H177.254V50ZM129.358 52V14.2H125.358V52H129.358ZM127.358 16.2H136.052V12.2H127.358V16.2ZM134.052 14.2V46.87H138.052V14.2H134.052ZM137.466 45.4558L135.468 43.4578L132.64 46.2862L134.638 48.2842L137.466 45.4558ZM134.054 46.872H149.93V42.872H134.054V46.872ZM186.632 52H184.632V54H186.632V52ZM186.632 14.2V12.2H184.632V14.2H186.632ZM195.326 14.2H197.326V12.2H195.326V14.2ZM195.326 38.824H193.326V44.9392L196.939 40.0058L195.326 38.824ZM213.362 14.2V12.2H212.347L211.748 13.0182L213.362 14.2ZM221.57 14.2H223.57V12.2H221.57V14.2ZM221.57 52V54H223.57V52H221.57ZM212.93 52H210.93V54H212.93V52ZM212.93 27.43H214.93V21.3256L211.317 26.2465L212.93 27.43ZM194.894 52V54H195.906L196.506 53.1835L194.894 52ZM188.632 52V14.2H184.632V52H188.632ZM186.632 16.2H195.326V12.2H186.632V16.2ZM193.326 14.2V38.824H197.326V14.2H193.326ZM196.939 40.0058L214.975 15.3818L211.748 13.0182L193.712 37.6422L196.939 40.0058ZM213.362 16.2H221.57V12.2H213.362V16.2ZM219.57 14.2V52H223.57V14.2H219.57ZM221.57 50H212.93V54H221.57V50ZM214.93 52V27.43H210.93V52H214.93ZM211.317 26.2465L193.281 50.8165L196.506 53.1835L214.542 28.6135L211.317 26.2465ZM194.894 50H186.632V54H194.894V50ZM230.981 52H228.981V54H230.981V52ZM230.981 14.2V12.2H228.981V14.2H230.981ZM239.675 14.2H241.675V12.2H239.675V14.2ZM239.675 38.824H237.675V44.9392L241.289 40.0058L239.675 38.824ZM257.711 14.2V12.2H256.697L256.098 13.0182L257.711 14.2ZM265.919 14.2H267.919V12.2H265.919V14.2ZM265.919 52V54H267.919V52H265.919ZM257.279 52H255.279V54H257.279V52ZM257.279 27.43H259.279V21.3256L255.667 26.2465L257.279 27.43ZM239.243 52V54H240.256L240.855 53.1835L239.243 52ZM240.485 9.61L239.173 11.1192L239.181 11.1262L239.189 11.1331L240.485 9.61ZM237.947 3.508V1.508H235.92L235.947 3.53539L237.947 3.508ZM243.941 3.508L245.94 3.45246L245.886 1.508H243.941V3.508ZM245.075 6.478L243.698 7.928L243.735 7.96322L243.774 7.99651L245.075 6.478ZM251.717 6.478L253.019 7.99651L253.039 7.97906L253.059 7.96107L251.717 6.478ZM252.905 3.508V1.508H250.96L250.906 3.45246L252.905 3.508ZM258.899 3.508L260.899 3.53539L260.927 1.508H258.899V3.508ZM256.307 9.61L257.603 11.1331V11.1331L256.307 9.61ZM232.981 52V14.2H228.981V52H232.981ZM230.981 16.2H239.675V12.2H230.981V16.2ZM237.675 14.2V38.824H241.675V14.2H237.675ZM241.289 40.0058L259.325 15.3818L256.098 13.0182L238.062 37.6422L241.289 40.0058ZM257.711 16.2H265.919V12.2H257.711V16.2ZM263.919 14.2V52H267.919V14.2H263.919ZM265.919 50H257.279V54H265.919V50ZM259.279 52V27.43H255.279V52H259.279ZM255.667 26.2465L237.631 50.8165L240.855 53.1835L258.891 28.6135L255.667 26.2465ZM239.243 50H230.981V54H239.243V50ZM248.423 9.77C245.023 9.77 242.946 9.07814 241.781 8.08692L239.189 11.1331C241.408 13.0219 244.624 13.77 248.423 13.77V9.77ZM241.798 8.10079C240.656 7.10797 239.977 5.66204 239.947 3.4806L235.947 3.53539C235.99 6.60995 237.003 9.23203 239.173 11.1192L241.798 8.10079ZM237.947 5.508H243.941V1.508H237.947V5.508ZM241.942 3.56353C241.988 5.22027 242.487 6.77829 243.698 7.928L246.453 5.028C246.223 4.8097 245.966 4.38773 245.94 3.45246L241.942 3.56353ZM243.774 7.99651C245.032 9.07501 246.693 9.45 248.423 9.45V5.45C247.201 5.45 246.631 5.17699 246.377 4.95948L243.774 7.99651ZM248.423 9.45C250.132 9.45 251.768 9.06844 253.019 7.99651L250.416 4.95948C250.154 5.18356 249.595 5.45 248.423 5.45V9.45ZM253.059 7.96107C254.323 6.81751 254.858 5.24837 254.904 3.56353L250.906 3.45246C250.881 4.35963 250.623 4.77049 250.375 4.99493L253.059 7.96107ZM252.905 5.508H258.899V1.508H252.905V5.508ZM256.899 3.4806C256.87 5.64784 256.183 7.08981 255.011 8.08692L257.603 11.1331C259.816 9.25018 260.857 6.62415 260.899 3.53539L256.899 3.4806ZM255.011 8.08692C253.843 9.08058 251.782 9.77 248.423 9.77V13.77C252.193 13.77 255.387 13.0194 257.603 11.1331L255.011 8.08692ZM290.624 52H288.624V54H290.624V52ZM290.624 14.2V12.2H288.624V14.2H290.624ZM315.734 15.874L314.904 17.6938L314.915 17.6989L314.927 17.7038L315.734 15.874ZM321.404 20.572L319.726 21.6609V21.6609L321.404 20.572ZM315.734 39.958L316.541 41.7878L316.552 41.7829L316.563 41.7778L315.734 39.958ZM295.484 41.578L294.06 40.1736L290.702 43.578H295.484V41.578ZM299.372 37.636H301.372V32.7601L297.948 36.2316L299.372 37.636ZM299.372 52V54H301.372V52H299.372ZM299.372 38.608L297.911 39.974L301.372 43.6752V38.608H299.372ZM295.484 34.45V32.45H290.876L294.023 35.816L295.484 34.45ZM295.484 21.328L294.023 19.962L290.876 23.328H295.484V21.328ZM299.372 17.17H301.372V12.1028L297.911 15.804L299.372 17.17ZM292.624 52V14.2H288.624V52H292.624ZM290.624 16.2H306.986V12.2H290.624V16.2ZM306.986 16.2C310.155 16.2 312.775 16.723 314.904 17.6938L316.563 14.0542C313.797 12.793 310.585 12.2 306.986 12.2V16.2ZM314.927 17.7038C317.053 18.6421 318.626 19.9657 319.726 21.6609L323.081 19.4831C321.518 17.0742 319.31 15.2659 316.541 14.0442L314.927 17.7038ZM319.726 21.6609C320.815 23.3388 321.402 25.3943 321.402 27.916H325.402C325.402 24.7497 324.656 21.9092 323.081 19.4831L319.726 21.6609ZM321.402 27.916C321.402 30.3961 320.818 32.4351 319.726 34.1171L323.081 36.2949C324.654 33.8729 325.402 31.0519 325.402 27.916H321.402ZM319.726 34.1171C318.622 35.8182 317.042 37.1638 314.904 38.1382L316.563 41.7778C319.322 40.5202 321.522 38.6978 323.081 36.2949L319.726 34.1171ZM314.927 38.1282C312.791 39.0704 310.163 39.578 306.986 39.578V43.578C310.577 43.578 313.781 43.0056 316.541 41.7878L314.927 38.1282ZM306.986 39.578H295.484V43.578H306.986V39.578ZM296.908 42.9824L300.796 39.0404L297.948 36.2316L294.06 40.1736L296.908 42.9824ZM297.372 37.636V52H301.372V37.636H297.372ZM299.372 50H290.624V54H299.372V50ZM300.833 37.242L296.945 33.084L294.023 35.816L297.911 39.974L300.833 37.242ZM295.484 36.45H306.5V32.45H295.484V36.45ZM306.5 36.45C309.435 36.45 312.01 35.8312 313.856 34.2347L311.239 31.2093C310.421 31.9168 308.965 32.45 306.5 32.45V36.45ZM313.856 34.2347C315.702 32.6385 316.546 30.4426 316.546 27.916H312.546C312.546 29.4934 312.058 30.5015 311.239 31.2093L313.856 34.2347ZM316.546 27.916C316.546 25.3659 315.71 23.1465 313.856 21.5433L311.239 24.5687C312.05 25.2695 312.546 26.2901 312.546 27.916H316.546ZM313.856 21.5433C312.01 19.9468 309.435 19.328 306.5 19.328V23.328C308.965 23.328 310.421 23.8612 311.239 24.5687L313.856 21.5433ZM306.5 19.328H295.484V23.328H306.5V19.328ZM296.945 22.694L300.833 18.536L297.911 15.804L294.023 19.962L296.945 22.694ZM297.372 17.17V38.608H301.372V17.17H297.372ZM337.219 29.428V27.428H335.219V29.428H337.219ZM355.417 29.428H357.417V27.428H355.417V29.428ZM355.417 36.232V38.232H357.417V36.232H355.417ZM337.219 36.232H335.219V38.232H337.219V36.232ZM337.867 44.98H335.867V46.98H337.867V44.98ZM358.441 44.98H360.441V42.98H358.441V44.98ZM358.441 52V54H360.441V52H358.441ZM329.173 52H327.173V54H329.173V52ZM329.173 14.2V12.2H327.173V14.2H329.173ZM357.739 14.2H359.739V12.2H357.739V14.2ZM357.739 21.22V23.22H359.739V21.22H357.739ZM337.867 21.22V19.22H335.867V21.22H337.867ZM337.219 31.428H355.417V27.428H337.219V31.428ZM353.417 29.428V36.232H357.417V29.428H353.417ZM355.417 34.232H337.219V38.232H355.417V34.232ZM339.219 36.232V29.428H335.219V36.232H339.219ZM337.867 46.98H358.441V42.98H337.867V46.98ZM356.441 44.98V52H360.441V44.98H356.441ZM358.441 50H329.173V54H358.441V50ZM331.173 52V14.2H327.173V52H331.173ZM329.173 16.2H357.739V12.2H329.173V16.2ZM355.739 14.2V21.22H359.739V14.2H355.739ZM357.739 19.22H337.867V23.22H357.739V19.22ZM335.867 21.22V44.98H339.867V21.22H335.867ZM375.227 51.244L374.498 53.1065L374.514 53.1128L374.53 53.1189L375.227 51.244ZM368.747 47.14L367.361 48.5822L368.747 47.14ZM364.427 40.93L362.585 41.7111L362.59 41.7229L362.596 41.7345L364.427 40.93ZM364.427 25.27L362.596 24.4655L362.59 24.4771L362.585 24.4889L364.427 25.27ZM368.747 19.06L367.375 17.6044L367.368 17.6111L367.361 17.6178L368.747 19.06ZM375.281 15.01L375.986 16.8815L375.998 16.8771L376.009 16.8725L375.281 15.01ZM392.291 15.28L391.488 17.1117L391.503 17.1183L391.518 17.1247L392.291 15.28ZM398.987 20.248L400.343 21.7176L401.729 20.4386L400.533 18.9801L398.987 20.248ZM393.371 25.432L391.868 26.7516L393.221 28.2923L394.727 26.9016L393.371 25.432ZM389.051 22.138L388.189 23.943L388.206 23.951L388.223 23.9587L389.051 22.138ZM375.173 24.352L376.587 25.7662L375.173 24.352ZM372.635 28.186L370.787 27.42L370.779 27.4394L370.771 27.4589L372.635 28.186ZM372.635 38.014L370.771 38.7411L370.779 38.7606L370.787 38.78L372.635 38.014ZM375.173 41.848L373.758 43.2622L375.173 41.848ZM389.051 44.116L389.878 45.9367L389.895 45.929L389.912 45.921L389.051 44.116ZM393.371 40.714L394.727 39.2444L393.202 37.837L391.852 39.4124L393.371 40.714ZM398.987 45.898L400.533 47.1659L401.729 45.7074L400.343 44.4284L398.987 45.898ZM392.291 50.92L391.497 49.0843L391.488 49.0883L392.291 50.92ZM383.381 50.648C380.682 50.648 378.202 50.2156 375.923 49.3691L374.53 53.1189C377.291 54.1444 380.247 54.648 383.381 54.648V50.648ZM375.955 49.3815C373.704 48.5005 371.77 47.2713 370.132 45.6978L367.361 48.5822C369.395 50.5367 371.781 52.0435 374.498 53.1065L375.955 49.3815ZM370.132 45.6978C368.489 44.1187 367.198 42.2665 366.258 40.1255L362.596 41.7345C363.743 44.3455 365.332 46.6333 367.361 48.5822L370.132 45.6978ZM366.268 40.1489C365.375 38.0441 364.915 35.7031 364.915 33.1H360.915C360.915 36.1849 361.462 39.0639 362.585 41.7111L366.268 40.1489ZM364.915 33.1C364.915 30.4969 365.375 28.1559 366.268 26.0511L362.585 24.4889C361.462 27.1361 360.915 30.0151 360.915 33.1H364.915ZM366.258 26.0745C367.198 23.9335 368.489 22.0813 370.132 20.5022L367.361 17.6178C365.332 19.5667 363.743 21.8545 362.596 24.4655L366.258 26.0745ZM370.118 20.5156C371.792 18.9388 373.741 17.7273 375.986 16.8815L374.575 13.1385C371.852 14.1646 369.446 15.6532 367.375 17.6044L370.118 20.5156ZM376.009 16.8725C378.238 16.0006 380.705 15.552 383.435 15.552V11.552C380.26 11.552 377.292 12.0754 374.552 13.1475L376.009 16.8725ZM383.435 15.552C386.473 15.552 389.146 16.0854 391.488 17.1117L393.094 13.4483C390.179 12.1706 386.948 11.552 383.435 11.552V15.552ZM391.518 17.1247C393.886 18.1167 395.851 19.5769 397.44 21.5159L400.533 18.9801C398.523 16.5271 396.023 14.6753 393.063 13.4353L391.518 17.1247ZM397.63 18.7784L392.014 23.9624L394.727 26.9016L400.343 21.7176L397.63 18.7784ZM394.873 24.1124C393.415 22.4509 391.752 21.1688 389.878 20.3173L388.223 23.9587C389.518 24.5472 390.735 25.4611 391.868 26.7516L394.873 24.1124ZM389.912 20.333C388.041 19.4402 386.016 19.004 383.867 19.004V23.004C385.461 23.004 386.892 23.3238 388.189 23.943L389.912 20.333ZM383.867 19.004C381.882 19.004 380.012 19.3287 378.28 20.0048L379.734 23.7312C380.953 23.2553 382.323 23.004 383.867 23.004V19.004ZM378.28 20.0048C376.556 20.6775 375.041 21.6549 373.758 22.9378L376.587 25.7662C377.464 24.8891 378.505 24.2105 379.734 23.7312L378.28 20.0048ZM373.758 22.9378C372.484 24.2119 371.495 25.713 370.787 27.42L374.482 28.952C374.998 27.707 375.701 26.6521 376.587 25.7662L373.758 22.9378ZM370.771 27.4589C370.094 29.196 369.771 31.0848 369.771 33.1H373.771C373.771 31.5152 374.024 30.128 374.498 28.9131L370.771 27.4589ZM369.771 33.1C369.771 35.1152 370.094 37.004 370.771 38.7411L374.498 37.2869C374.024 36.072 373.771 34.6848 373.771 33.1H369.771ZM370.787 38.78C371.495 40.487 372.484 41.9881 373.758 43.2622L376.587 40.4338C375.701 39.5479 374.998 38.493 374.482 37.248L370.787 38.78ZM373.758 43.2622C375.041 44.5451 376.556 45.5225 378.28 46.1952L379.734 42.4688C378.505 41.9895 377.464 41.3109 376.587 40.4338L373.758 43.2622ZM378.28 46.1952C380.012 46.8713 381.882 47.196 383.867 47.196V43.196C382.323 43.196 380.953 42.9447 379.734 42.4688L378.28 46.1952ZM383.867 47.196C386.002 47.196 388.015 46.7836 389.878 45.9367L388.223 42.2953C386.918 42.8883 385.475 43.196 383.867 43.196V47.196ZM389.912 45.921C391.78 45.0297 393.436 43.7109 394.889 42.0156L391.852 39.4124C390.713 40.7411 389.49 41.6903 388.189 42.311L389.912 45.921ZM392.014 42.1836L397.63 47.3676L400.343 44.4284L394.727 39.2444L392.014 42.1836ZM397.44 44.6301C395.847 46.5739 393.875 48.0559 391.497 49.0843L393.084 52.7557C396.034 51.4801 398.527 49.6141 400.533 47.1659L397.44 44.6301ZM391.488 49.0883C389.149 50.1135 386.459 50.648 383.381 50.648V54.648C386.927 54.648 390.176 54.0305 393.094 52.7517L391.488 49.0883ZM412.473 52H410.473V54H412.473V52ZM412.473 19.33L413.887 17.9158L410.473 14.5016V19.33H412.473ZM414.471 21.328V23.328H419.3L415.885 19.9138L414.471 21.328ZM400.431 21.328H398.431V23.328H400.431V21.328ZM400.431 14.2V12.2H398.431V14.2H400.431ZM433.209 14.2H435.209V12.2H433.209V14.2ZM433.209 21.328V23.328H435.209V21.328H433.209ZM419.169 21.328L417.736 19.9333L414.433 23.328H419.169V21.328ZM421.113 19.33H423.113V14.4065L419.68 17.9353L421.113 19.33ZM421.113 52V54H423.113V52H421.113ZM414.473 52V19.33H410.473V52H414.473ZM411.059 20.7442L413.057 22.7422L415.885 19.9138L413.887 17.9158L411.059 20.7442ZM414.471 19.328H400.431V23.328H414.471V19.328ZM402.431 21.328V14.2H398.431V21.328H402.431ZM400.431 16.2H433.209V12.2H400.431V16.2ZM431.209 14.2V21.328H435.209V14.2H431.209ZM433.209 19.328H419.169V23.328H433.209V19.328ZM420.603 22.7227L422.547 20.7247L419.68 17.9353L417.736 19.9333L420.603 22.7227ZM419.113 19.33V52H423.113V19.33H419.113ZM421.113 50H412.473V54H421.113V50ZM447.949 51.19L447.229 53.056L447.238 53.0594L447.949 51.19ZM441.361 47.086L439.975 48.5282L439.982 48.5349L439.989 48.5416L441.361 47.086ZM437.041 40.876L435.199 41.6571L435.204 41.6689L435.21 41.6805L437.041 40.876ZM437.041 25.324L435.21 24.5195L435.204 24.5311L435.199 24.5429L437.041 25.324ZM441.415 19.114L440.043 17.6584L441.415 19.114ZM448.003 15.01L447.283 13.144L448.003 15.01ZM464.419 15.01L463.69 16.8725L463.699 16.876L464.419 15.01ZM470.953 19.114L469.567 20.5562L469.574 20.5629L469.581 20.5696L470.953 19.114ZM475.327 25.324L473.495 26.1286L473.5 26.1389L475.327 25.324ZM475.327 40.93L477.158 41.7346L477.162 41.7244L475.327 40.93ZM470.953 47.14L472.323 48.5964L472.324 48.5956L470.953 47.14ZM464.419 51.19L463.699 49.324L463.69 49.3275L464.419 51.19ZM460.855 44.332L460.112 42.475L460.104 42.4783L460.095 42.4817L460.855 44.332ZM464.635 41.848L463.22 40.4338V40.4338L464.635 41.848ZM467.119 38.014L465.271 37.248L465.263 37.2674L465.255 37.2869L467.119 38.014ZM467.119 28.186L465.255 28.9131L465.263 28.9326L465.271 28.952L467.119 28.186ZM464.635 24.352L463.197 25.742L463.208 25.7542L463.22 25.7662L464.635 24.352ZM460.909 21.868L460.166 23.725L460.909 21.868ZM451.513 21.868L450.77 20.011L450.762 20.0143L450.753 20.0177L451.513 21.868ZM447.787 24.352L449.201 25.7662L447.787 24.352ZM445.249 28.186L443.401 27.42L443.393 27.4394L443.385 27.4589L445.249 28.186ZM445.249 38.014L443.38 38.726L443.39 38.7532L443.401 38.78L445.249 38.014ZM447.733 41.848L446.295 43.238L446.306 43.2502L446.318 43.2622L447.733 41.848ZM451.513 44.332L452.255 42.475L451.513 44.332ZM456.265 50.648C453.497 50.648 450.968 50.1986 448.659 49.3206L447.238 53.0594C450.041 54.1254 453.056 54.648 456.265 54.648V50.648ZM448.668 49.324C446.378 48.4405 444.406 47.2078 442.732 45.6304L439.989 48.5416C442.059 50.4922 444.479 51.9955 447.229 53.056L448.668 49.324ZM442.746 45.6438C441.103 44.0647 439.812 42.2125 438.872 40.0715L435.21 41.6805C436.357 44.2915 437.946 46.5793 439.975 48.5282L442.746 45.6438ZM438.882 40.0949C437.987 37.987 437.529 35.6634 437.529 33.1H433.529C433.529 36.1526 434.078 39.013 435.199 41.6571L438.882 40.0949ZM437.529 33.1C437.529 30.5366 437.987 28.213 438.882 26.1051L435.199 24.5429C434.078 27.187 433.529 30.0474 433.529 33.1H437.529ZM438.872 26.1285C439.809 23.9959 441.111 22.1479 442.786 20.5696L440.043 17.6584C437.974 19.6081 436.36 21.9001 435.21 24.5195L438.872 26.1285ZM442.786 20.5696C444.46 18.9922 446.432 17.7595 448.722 16.876L447.283 13.144C444.533 14.2045 442.113 15.7078 440.043 17.6584L442.786 20.5696ZM448.722 16.876C450.992 16.0005 453.482 15.552 456.211 15.552V11.552C453.035 11.552 450.053 12.0755 447.283 13.144L448.722 16.876ZM456.211 15.552C458.979 15.552 461.464 16.0016 463.69 16.8725L465.147 13.1475C462.405 12.0744 459.418 11.552 456.211 11.552V15.552ZM463.699 16.876C465.986 17.7583 467.934 18.9873 469.567 20.5562L472.338 17.6718C470.299 15.7127 467.891 14.2057 465.138 13.144L463.699 16.876ZM469.581 20.5696C471.256 22.1479 472.558 23.9959 473.496 26.1285L477.158 24.5195C476.007 21.9001 474.393 19.6081 472.324 17.6584L469.581 20.5696ZM473.5 26.1389C474.418 28.1955 474.893 30.5058 474.893 33.1H478.893C478.893 30.0062 478.323 27.1325 477.153 24.5091L473.5 26.1389ZM474.893 33.1C474.893 35.6537 474.419 37.9912 473.491 40.1356L477.162 41.7244C478.322 39.0448 478.893 36.1623 478.893 33.1H474.893ZM473.496 40.1255C472.558 42.2581 471.256 44.1061 469.581 45.6844L472.324 48.5956C474.393 46.6459 476.007 44.3539 477.158 41.7345L473.496 40.1255ZM469.582 45.6836C467.947 47.2219 465.995 48.4384 463.699 49.324L465.138 53.056C467.882 51.9976 470.286 50.5141 472.323 48.5964L469.582 45.6836ZM463.69 49.3275C461.462 50.1994 458.994 50.648 456.265 50.648V54.648C459.439 54.648 462.408 54.1246 465.147 53.0525L463.69 49.3275ZM456.211 47.196C458.133 47.196 459.943 46.8679 461.614 46.1823L460.095 42.4817C458.959 42.9481 457.672 43.196 456.211 43.196V47.196ZM461.597 46.189C463.285 45.514 464.774 44.5368 466.049 43.2622L463.22 40.4338C462.335 41.3192 461.304 41.998 460.112 42.475L461.597 46.189ZM466.049 43.2622C467.332 41.9793 468.309 40.4649 468.982 38.7411L465.255 37.2869C464.776 38.5151 464.097 39.5567 463.22 40.4338L466.049 43.2622ZM468.966 38.78C469.691 37.0323 470.037 35.1297 470.037 33.1H466.037C466.037 34.6703 465.77 36.0437 465.271 37.248L468.966 38.78ZM470.037 33.1C470.037 31.0703 469.691 29.1677 468.966 27.42L465.271 28.952C465.77 30.1563 466.037 31.5297 466.037 33.1H470.037ZM468.982 27.4589C468.309 25.7351 467.332 24.2207 466.049 22.9378L463.22 25.7662C464.097 26.6433 464.776 27.6849 465.255 28.9131L468.982 27.4589ZM466.073 22.962C464.826 21.6723 463.345 20.6884 461.651 20.011L460.166 23.725C461.352 24.1996 462.355 24.8717 463.197 25.742L466.073 22.962ZM461.651 20.011C459.954 19.3323 458.134 19.004 456.211 19.004V23.004C457.671 23.004 458.983 23.2517 460.166 23.725L461.651 20.011ZM456.211 19.004C454.287 19.004 452.467 19.3323 450.77 20.011L452.255 23.725C453.438 23.2517 454.75 23.004 456.211 23.004V19.004ZM450.753 20.0177C449.103 20.6949 447.638 21.6717 446.372 22.9378L449.201 25.7662C450.095 24.8723 451.114 24.1931 452.272 23.7183L450.753 20.0177ZM446.372 22.9378C445.098 24.2119 444.109 25.713 443.401 27.42L447.096 28.952C447.612 27.707 448.315 26.6521 449.201 25.7662L446.372 22.9378ZM443.385 27.4589C442.708 29.196 442.385 31.0848 442.385 33.1H446.385C446.385 31.5152 446.638 30.128 447.112 28.9131L443.385 27.4589ZM442.385 33.1C442.385 35.0853 442.709 36.9669 443.38 38.726L447.118 37.302C446.636 36.0371 446.385 34.6427 446.385 33.1H442.385ZM443.401 38.78C444.103 40.473 445.065 41.9663 446.295 43.238L449.171 40.458C448.312 39.5697 447.618 38.507 447.096 37.248L443.401 38.78ZM446.318 43.2622C447.593 44.5368 449.082 45.514 450.77 46.189L452.255 42.475C451.063 41.998 450.032 41.3192 449.147 40.4338L446.318 43.2622ZM450.77 46.189C452.467 46.8677 454.287 47.196 456.211 47.196V43.196C454.75 43.196 453.438 42.9483 452.255 42.475L450.77 46.189ZM483.632 52H481.632V54H483.632V52ZM483.632 14.2V12.2H481.632V14.2H483.632ZM508.742 15.874L507.912 17.6938L507.923 17.6989L507.934 17.7038L508.742 15.874ZM514.412 20.572L512.734 21.6609V21.6609L514.412 20.572ZM508.742 39.958L509.549 41.7878L509.56 41.7829L509.571 41.7778L508.742 39.958ZM488.492 41.578L487.068 40.1736L483.71 43.578H488.492V41.578ZM492.38 37.636H494.38V32.7601L490.956 36.2316L492.38 37.636ZM492.38 52V54H494.38V52H492.38ZM492.38 38.608L490.919 39.974L494.38 43.6752V38.608H492.38ZM488.492 34.45V32.45H483.883L487.031 35.816L488.492 34.45ZM488.492 21.328L487.031 19.962L483.883 23.328H488.492V21.328ZM492.38 17.17H494.38V12.1028L490.919 15.804L492.38 17.17ZM485.632 52V14.2H481.632V52H485.632ZM483.632 16.2H499.994V12.2H483.632V16.2ZM499.994 16.2C503.163 16.2 505.782 16.723 507.912 17.6938L509.571 14.0542C506.805 12.793 503.592 12.2 499.994 12.2V16.2ZM507.934 17.7038C510.061 18.6421 511.634 19.9657 512.734 21.6609L516.089 19.4831C514.526 17.0742 512.318 15.2659 509.549 14.0442L507.934 17.7038ZM512.734 21.6609C513.823 23.3388 514.41 25.3943 514.41 27.916H518.41C518.41 24.7497 517.664 21.9092 516.089 19.4831L512.734 21.6609ZM514.41 27.916C514.41 30.3961 513.826 32.4351 512.734 34.1171L516.089 36.2949C517.661 33.8729 518.41 31.0519 518.41 27.916H514.41ZM512.734 34.1171C511.63 35.8182 510.049 37.1638 507.912 38.1382L509.571 41.7778C512.33 40.5202 514.529 38.6978 516.089 36.2949L512.734 34.1171ZM507.934 38.1282C505.798 39.0704 503.171 39.578 499.994 39.578V43.578C503.585 43.578 506.789 43.0056 509.549 41.7878L507.934 38.1282ZM499.994 39.578H488.492V43.578H499.994V39.578ZM489.916 42.9824L493.804 39.0404L490.956 36.2316L487.068 40.1736L489.916 42.9824ZM490.38 37.636V52H494.38V37.636H490.38ZM492.38 50H483.632V54H492.38V50ZM493.84 37.242L489.952 33.084L487.031 35.816L490.919 39.974L493.84 37.242ZM488.492 36.45H499.508V32.45H488.492V36.45ZM499.508 36.45C502.442 36.45 505.018 35.8312 506.864 34.2347L504.247 31.2093C503.429 31.9168 501.973 32.45 499.508 32.45V36.45ZM506.864 34.2347C508.71 32.6385 509.554 30.4426 509.554 27.916H505.554C505.554 29.4934 505.066 30.5015 504.247 31.2093L506.864 34.2347ZM509.554 27.916C509.554 25.3659 508.718 23.1465 506.864 21.5433L504.247 24.5687C505.058 25.2695 505.554 26.2901 505.554 27.916H509.554ZM506.864 21.5433C505.018 19.9468 502.442 19.328 499.508 19.328V23.328C501.973 23.328 503.429 23.8612 504.247 24.5687L506.864 21.5433ZM499.508 19.328H488.492V23.328H499.508V19.328ZM489.952 22.694L493.84 18.536L490.919 15.804L487.031 19.962L489.952 22.694ZM490.38 17.17V38.608H494.38V17.17H490.38ZM516.016 52L514.189 51.1858L512.935 54H516.016V52ZM532.864 14.2V12.2H531.566L531.037 13.3858L532.864 14.2ZM541.504 14.2L543.33 13.3836L542.801 12.2H541.504V14.2ZM558.406 52V54H561.491L560.232 51.1836L558.406 52ZM549.226 52L547.378 52.7654L547.89 54H549.226V52ZM535.402 18.628V16.628H532.409L533.554 19.3934L535.402 18.628ZM538.858 18.628L540.705 19.396L541.856 16.628H538.858V18.628ZM524.98 52V54H526.314L526.827 52.768L524.98 52ZM524.44 43.9L522.552 43.24L521.622 45.9H524.44V43.9ZM526.762 37.258V35.258H525.342L524.874 36.598L526.762 37.258ZM546.202 37.258L548.085 36.5844L547.611 35.258H546.202V37.258ZM548.578 43.9V45.9H551.418L550.461 43.2264L548.578 43.9ZM517.843 52.8142L534.691 15.0142L531.037 13.3858L514.189 51.1858L517.843 52.8142ZM532.864 16.2H541.504V12.2H532.864V16.2ZM539.678 15.0164L556.58 52.8164L560.232 51.1836L543.33 13.3836L539.678 15.0164ZM558.406 50H549.226V54H558.406V50ZM551.074 51.2346L537.25 17.8626L533.554 19.3934L547.378 52.7654L551.074 51.2346ZM535.402 20.628H538.858V16.628H535.402V20.628ZM537.011 17.86L523.133 51.232L526.827 52.768L540.705 19.396L537.011 17.86ZM524.98 50H516.016V54H524.98V50ZM526.328 44.56L528.65 37.918L524.874 36.598L522.552 43.24L526.328 44.56ZM526.762 39.258H546.202V35.258H526.762V39.258ZM544.319 37.9316L546.695 44.5736L550.461 43.2264L548.085 36.5844L544.319 37.9316ZM548.578 41.9H524.44V45.9H548.578V41.9ZM589.339 14.2V12.2H587.339V14.2H589.339ZM598.087 14.2H600.087V12.2H598.087V14.2ZM598.087 52V54H600.087V52H598.087ZM589.339 52H587.339V54H589.339V52ZM572.167 52V54H574.167V52H572.167ZM563.419 52H561.419V54H563.419V52ZM563.419 14.2V12.2H561.419V14.2H563.419ZM572.167 14.2H574.167V12.2H572.167V14.2ZM589.987 36.502V38.502H591.987V36.502H589.987ZM571.519 36.502H569.519V38.502H571.519V36.502ZM571.519 29.104V27.104H569.519V29.104H571.519ZM589.987 29.104H591.987V27.104H589.987V29.104ZM589.339 16.2H598.087V12.2H589.339V16.2ZM596.087 14.2V52H600.087V14.2H596.087ZM598.087 50H589.339V54H598.087V50ZM591.339 52V14.2H587.339V52H591.339ZM572.167 50H563.419V54H572.167V50ZM565.419 52V14.2H561.419V52H565.419ZM563.419 16.2H572.167V12.2H563.419V16.2ZM570.167 14.2V52H574.167V14.2H570.167ZM589.987 34.502H571.519V38.502H589.987V34.502ZM573.519 36.502V29.104H569.519V36.502H573.519ZM571.519 31.104H589.987V27.104H571.519V31.104ZM587.987 29.104V36.502H591.987V29.104H587.987Z" fill="#292929" mask="url(#path-1-outside-1_3_219)"/>
<path d="M107.477 114.487C105.551 114.487 103.765 114.186 102.118 113.582C100.494 112.956 99.0784 112.074 97.872 110.938C96.6888 109.801 95.7608 108.467 95.088 106.936C94.4152 105.381 94.0788 103.676 94.0788 101.82C94.0788 99.964 94.4152 98.2704 95.088 96.7392C95.7608 95.1848 96.6888 93.8392 97.872 92.7024C99.0784 91.5656 100.494 90.6956 102.118 90.0924C103.765 89.466 105.551 89.1528 107.477 89.1528C109.727 89.1528 111.734 89.5472 113.497 90.336C115.284 91.1248 116.768 92.2616 117.952 93.7464L113.567 97.7136C112.778 96.7856 111.908 96.078 110.957 95.5908C110.029 95.1036 108.985 94.86 107.825 94.86C106.827 94.86 105.911 95.0224 105.076 95.3472C104.24 95.672 103.521 96.1476 102.918 96.774C102.338 97.3772 101.874 98.108 101.526 98.9664C101.201 99.8248 101.039 100.776 101.039 101.82C101.039 102.864 101.201 103.815 101.526 104.674C101.874 105.532 102.338 106.274 102.918 106.901C103.521 107.504 104.24 107.968 105.076 108.293C105.911 108.618 106.827 108.78 107.825 108.78C108.985 108.78 110.029 108.536 110.957 108.049C111.908 107.562 112.778 106.854 113.567 105.926L117.952 109.894C116.768 111.355 115.284 112.492 113.497 113.304C111.734 114.093 109.727 114.487 107.477 114.487ZM119.264 114L130.018 89.64H136.804L147.592 114H140.423L132.001 93.0156H134.716L126.294 114H119.264ZM125.146 109.267L126.92 104.186H138.822L140.597 109.267H125.146ZM167.714 89.64H174.604V114H167.714V89.64ZM158.318 114H151.427V89.64H158.318V114ZM168.201 104.5H157.831V98.7924H168.201V104.5ZM196.264 114L189.408 102.412L194.941 99.1404L204.024 114H196.264ZM180.743 114V89.64H187.599V114H180.743ZM185.615 104.674V99.1056H194.454V104.674H185.615ZM195.603 102.551L189.234 101.855L196.716 89.64H203.955L195.603 102.551ZM212.367 114V93.5724L213.898 95.1036H204.885V89.64H226.6V95.1036H217.622L219.153 93.5724V114H212.367ZM228.555 106.622V101.542H238.717V106.622H228.555ZM244.031 114V89.64H266.894V114H260.073V93.5724L261.605 95.1036H249.32L250.817 93.5724V114H244.031ZM279.479 99.0708H290.789V104.221H279.479V99.0708ZM279.967 108.676H292.703V114H273.146V89.64H292.251V94.9644H279.967V108.676ZM303.067 114V93.5724L304.598 95.1036H295.585V89.64H317.3V95.1036H308.322L309.853 93.5724V114H303.067ZM327.854 99.0708H339.164V104.221H327.854V99.0708ZM328.341 108.676H341.078V114H321.52V89.64H340.626V94.9644H328.341V108.676ZM346.048 114V89.64H357.184C359.411 89.64 361.325 89.9996 362.926 90.7188C364.55 91.438 365.802 92.482 366.684 93.8508C367.566 95.1964 368.006 96.7972 368.006 98.6532C368.006 100.486 367.566 102.075 366.684 103.421C365.802 104.766 364.55 105.81 362.926 106.553C361.325 107.272 359.411 107.632 357.184 107.632H349.876L352.938 104.639V114H346.048ZM352.938 105.37L349.876 102.203H356.766C358.204 102.203 359.272 101.89 359.968 101.263C360.687 100.637 361.046 99.7668 361.046 98.6532C361.046 97.5164 360.687 96.6348 359.968 96.0084C359.272 95.382 358.204 95.0688 356.766 95.0688H349.876L352.938 91.902V105.37ZM372.172 114V89.64H392.53V94.9644H378.958V98.8968H385.257C388.227 98.8968 390.489 99.5232 392.043 100.776C393.621 102.029 394.409 103.838 394.409 106.205C394.409 108.641 393.528 110.555 391.765 111.947C390.001 113.316 387.531 114 384.352 114H372.172ZM378.958 109.058H383.9C385.037 109.058 385.907 108.826 386.51 108.362C387.136 107.898 387.449 107.237 387.449 106.379C387.449 104.662 386.266 103.804 383.9 103.804H378.958V109.058ZM399.451 108.536C400.82 108.931 401.933 109.058 402.792 108.919C403.673 108.757 404.45 108.177 405.123 107.179L406.306 105.439L406.898 104.778L414.484 89.64H421.201L411.109 108.467C410.111 110.323 408.916 111.761 407.524 112.782C406.156 113.803 404.648 114.383 403 114.522C401.353 114.661 399.625 114.36 397.815 113.617L399.451 108.536ZM406.794 110.311L395.658 89.64H402.931L410.552 105.439L406.794 110.311ZM424.455 114V89.64H435.591C437.818 89.64 439.732 89.9996 441.333 90.7188C442.957 91.438 444.21 92.482 445.091 93.8508C445.973 95.1964 446.414 96.7972 446.414 98.6532C446.414 100.486 445.973 102.075 445.091 103.421C444.21 104.766 442.957 105.81 441.333 106.553C439.732 107.272 437.818 107.632 435.591 107.632H428.283L431.345 104.639V114H424.455ZM431.345 105.37L428.283 102.203H435.173C436.612 102.203 437.679 101.89 438.375 101.263C439.094 100.637 439.454 99.7668 439.454 98.6532C439.454 97.5164 439.094 96.6348 438.375 96.0084C437.679 95.382 436.612 95.0688 435.173 95.0688H428.283L431.345 91.902V105.37ZM450.58 114V89.64H468.432L468.397 95.1036H455.834L457.366 93.5724V114H450.58ZM465.33 114L476.083 89.64H482.869L493.657 114H486.489L478.067 93.0156H480.781L472.36 114H465.33ZM471.211 109.267L472.986 104.186H484.888L486.663 109.267H471.211ZM506.901 93.3288L502.377 95.7996V94.7556L506.901 97.1916L504.882 100.532L500.706 98.0268L501.228 97.7136L501.333 102.342H497.366L497.47 97.7136L497.992 98.0268L493.816 100.532L491.832 97.1916L496.356 94.7556V95.7996L491.832 93.3288L493.816 89.988L497.992 92.5284L497.47 92.8416L497.366 88.1784H501.333L501.228 92.8416L500.706 92.5284L504.882 89.988L506.901 93.3288Z" fill="#292929"/>
<path d="M188.368 152.428L186.712 153.364V153.172L188.368 154.108L188.092 154.612L186.46 153.664L186.592 153.604V155.44H186.04L186.052 153.604L186.172 153.664L184.552 154.612L184.264 154.108L185.932 153.172V153.364L184.264 152.428L184.552 151.924L186.172 152.872L186.052 152.932L186.04 151.096H186.592V152.932L186.46 152.872L188.092 151.924L188.368 152.428ZM190.802 160V153.7H196.466V160H195.614V154.216L195.83 154.444H191.438L191.654 154.216V160H190.802ZM201.48 160.06C200.872 160.06 200.324 159.924 199.836 159.652C199.356 159.372 198.976 158.992 198.696 158.512C198.416 158.024 198.276 157.468 198.276 156.844C198.276 156.212 198.416 155.656 198.696 155.176C198.976 154.696 199.356 154.32 199.836 154.048C200.316 153.776 200.864 153.64 201.48 153.64C202.104 153.64 202.656 153.776 203.136 154.048C203.624 154.32 204.004 154.696 204.276 155.176C204.556 155.656 204.696 156.212 204.696 156.844C204.696 157.468 204.556 158.024 204.276 158.512C204.004 158.992 203.624 159.372 203.136 159.652C202.648 159.924 202.096 160.06 201.48 160.06ZM201.48 159.304C201.936 159.304 202.34 159.204 202.692 159.004C203.044 158.796 203.32 158.508 203.52 158.14C203.728 157.764 203.832 157.332 203.832 156.844C203.832 156.348 203.728 155.916 203.52 155.548C203.32 155.18 203.044 154.896 202.692 154.696C202.34 154.488 201.94 154.384 201.492 154.384C201.044 154.384 200.644 154.488 200.292 154.696C199.94 154.896 199.66 155.18 199.452 155.548C199.244 155.916 199.14 156.348 199.14 156.844C199.14 157.332 199.244 157.764 199.452 158.14C199.66 158.508 199.94 158.796 200.292 159.004C200.644 159.204 201.04 159.304 201.48 159.304ZM209.657 160V153.7H212.441C213.153 153.7 213.713 153.836 214.121 154.108C214.537 154.38 214.745 154.78 214.745 155.308C214.745 155.82 214.549 156.216 214.157 156.496C213.765 156.768 213.249 156.904 212.609 156.904L212.777 156.652C213.529 156.652 214.081 156.792 214.433 157.072C214.785 157.352 214.961 157.756 214.961 158.284C214.961 158.828 214.761 159.252 214.361 159.556C213.969 159.852 213.357 160 212.525 160H209.657ZM210.485 159.328H212.489C213.025 159.328 213.429 159.244 213.701 159.076C213.981 158.9 214.121 158.62 214.121 158.236C214.121 157.852 213.997 157.572 213.749 157.396C213.501 157.22 213.109 157.132 212.573 157.132H210.485V159.328ZM210.485 156.496H212.381C212.869 156.496 213.241 156.404 213.497 156.22C213.761 156.036 213.893 155.768 213.893 155.416C213.893 155.064 213.761 154.8 213.497 154.624C213.241 154.448 212.869 154.36 212.381 154.36H210.485V156.496ZM219.658 160.06C219.002 160.06 218.426 159.924 217.93 159.652C217.434 159.372 217.046 158.992 216.766 158.512C216.486 158.024 216.346 157.468 216.346 156.844C216.346 156.22 216.478 155.668 216.742 155.188C217.014 154.708 217.382 154.332 217.846 154.06C218.318 153.78 218.846 153.64 219.43 153.64C220.022 153.64 220.546 153.776 221.002 154.048C221.466 154.312 221.83 154.688 222.094 155.176C222.358 155.656 222.49 156.212 222.49 156.844C222.49 156.884 222.486 156.928 222.478 156.976C222.478 157.016 222.478 157.06 222.478 157.108H216.994V156.472H222.022L221.686 156.724C221.686 156.268 221.586 155.864 221.386 155.512C221.194 155.152 220.93 154.872 220.594 154.672C220.258 154.472 219.87 154.372 219.43 154.372C218.998 154.372 218.61 154.472 218.266 154.672C217.922 154.872 217.654 155.152 217.462 155.512C217.27 155.872 217.174 156.284 217.174 156.748V156.88C217.174 157.36 217.278 157.784 217.486 158.152C217.702 158.512 217.998 158.796 218.374 159.004C218.758 159.204 219.194 159.304 219.682 159.304C220.066 159.304 220.422 159.236 220.75 159.1C221.086 158.964 221.374 158.756 221.614 158.476L222.094 159.028C221.814 159.364 221.462 159.62 221.038 159.796C220.622 159.972 220.162 160.06 219.658 160.06ZM227.628 160.06C227.084 160.06 226.592 159.936 226.152 159.688C225.712 159.432 225.36 159.068 225.096 158.596C224.84 158.116 224.712 157.532 224.712 156.844C224.712 156.156 224.84 155.576 225.096 155.104C225.352 154.624 225.7 154.26 226.14 154.012C226.58 153.764 227.076 153.64 227.628 153.64C228.228 153.64 228.764 153.776 229.236 154.048C229.716 154.312 230.092 154.688 230.364 155.176C230.636 155.656 230.772 156.212 230.772 156.844C230.772 157.484 230.636 158.044 230.364 158.524C230.092 159.004 229.716 159.38 229.236 159.652C228.764 159.924 228.228 160.06 227.628 160.06ZM224.376 162.328V153.7H225.192V155.596L225.108 156.856L225.228 158.128V162.328H224.376ZM227.568 159.304C228.016 159.304 228.416 159.204 228.768 159.004C229.12 158.796 229.4 158.508 229.608 158.14C229.816 157.764 229.92 157.332 229.92 156.844C229.92 156.356 229.816 155.928 229.608 155.56C229.4 155.192 229.12 154.904 228.768 154.696C228.416 154.488 228.016 154.384 227.568 154.384C227.12 154.384 226.716 154.488 226.356 154.696C226.004 154.904 225.724 155.192 225.516 155.56C225.316 155.928 225.216 156.356 225.216 156.844C225.216 157.332 225.316 157.764 225.516 158.14C225.724 158.508 226.004 158.796 226.356 159.004C226.716 159.204 227.12 159.304 227.568 159.304ZM235.243 160.06C234.619 160.06 234.059 159.924 233.563 159.652C233.075 159.372 232.691 158.992 232.411 158.512C232.131 158.024 231.991 157.468 231.991 156.844C231.991 156.212 232.131 155.656 232.411 155.176C232.691 154.696 233.075 154.32 233.563 154.048C234.059 153.776 234.619 153.64 235.243 153.64C235.779 153.64 236.263 153.744 236.695 153.952C237.127 154.16 237.467 154.472 237.715 154.888L237.079 155.32C236.863 155 236.595 154.764 236.275 154.612C235.955 154.46 235.607 154.384 235.231 154.384C234.783 154.384 234.379 154.488 234.019 154.696C233.659 154.896 233.375 155.18 233.167 155.548C232.959 155.916 232.855 156.348 232.855 156.844C232.855 157.34 232.959 157.772 233.167 158.14C233.375 158.508 233.659 158.796 234.019 159.004C234.379 159.204 234.783 159.304 235.231 159.304C235.607 159.304 235.955 159.228 236.275 159.076C236.595 158.924 236.863 158.692 237.079 158.38L237.715 158.812C237.467 159.22 237.127 159.532 236.695 159.748C236.263 159.956 235.779 160.06 235.243 160.06ZM239.364 160V153.7H240.216V158.704L244.428 153.7H245.184V160H244.332V154.984L240.132 160H239.364ZM247.626 160V153.7H248.478V158.704L252.69 153.7H253.446V160H252.594V154.984L248.394 160H247.626ZM264.308 160V157.216L264.548 157.456H261.8C261.128 157.456 260.552 157.34 260.072 157.108C259.6 156.876 259.236 156.548 258.98 156.124C258.732 155.692 258.608 155.176 258.608 154.576C258.608 153.936 258.744 153.396 259.016 152.956C259.288 152.508 259.672 152.172 260.168 151.948C260.672 151.716 261.256 151.6 261.92 151.6H265.184V160H264.308ZM258.608 160L260.672 157.048H261.584L259.556 160H258.608ZM264.308 156.964V152.116L264.548 152.368H261.956C261.172 152.368 260.564 152.556 260.132 152.932C259.708 153.3 259.496 153.84 259.496 154.552C259.496 155.24 259.696 155.772 260.096 156.148C260.496 156.516 261.088 156.7 261.872 156.7H264.548L264.308 156.964ZM267.817 160V153.7H268.669V156.484H272.641V153.7H273.493V160H272.641V157.216H268.669V160H267.817ZM280.235 159.592V154.444H277.199L277.127 155.848C277.111 156.272 277.083 156.688 277.043 157.096C277.011 157.504 276.951 157.88 276.863 158.224C276.783 158.56 276.667 158.836 276.515 159.052C276.363 159.26 276.167 159.38 275.927 159.412L275.075 159.256C275.323 159.264 275.527 159.176 275.687 158.992C275.847 158.8 275.971 158.54 276.059 158.212C276.147 157.884 276.211 157.512 276.251 157.096C276.291 156.672 276.323 156.24 276.347 155.8L276.431 153.7H281.087V159.592H280.235ZM274.811 161.524V159.256H282.071V161.524H281.267V160H275.615V161.524H274.811ZM286.432 160.06C285.776 160.06 285.2 159.924 284.704 159.652C284.208 159.372 283.82 158.992 283.54 158.512C283.26 158.024 283.12 157.468 283.12 156.844C283.12 156.22 283.252 155.668 283.516 155.188C283.788 154.708 284.156 154.332 284.62 154.06C285.092 153.78 285.62 153.64 286.204 153.64C286.796 153.64 287.32 153.776 287.776 154.048C288.24 154.312 288.604 154.688 288.868 155.176C289.132 155.656 289.264 156.212 289.264 156.844C289.264 156.884 289.26 156.928 289.252 156.976C289.252 157.016 289.252 157.06 289.252 157.108H283.768V156.472H288.796L288.46 156.724C288.46 156.268 288.36 155.864 288.16 155.512C287.968 155.152 287.704 154.872 287.368 154.672C287.032 154.472 286.644 154.372 286.204 154.372C285.772 154.372 285.384 154.472 285.04 154.672C284.696 154.872 284.428 155.152 284.236 155.512C284.044 155.872 283.948 156.284 283.948 156.748V156.88C283.948 157.36 284.052 157.784 284.26 158.152C284.476 158.512 284.772 158.796 285.148 159.004C285.532 159.204 285.968 159.304 286.456 159.304C286.84 159.304 287.196 159.236 287.524 159.1C287.86 158.964 288.148 158.756 288.388 158.476L288.868 159.028C288.588 159.364 288.236 159.62 287.812 159.796C287.396 159.972 286.936 160.06 286.432 160.06ZM295.77 160L293.178 156.88L293.886 156.46L296.778 160H295.77ZM291.15 160V153.7H292.002V160H291.15ZM291.738 157.192V156.46H293.766V157.192H291.738ZM293.958 156.94L293.166 156.82L295.674 153.7H296.598L293.958 156.94ZM300.54 160.06C299.916 160.06 299.356 159.924 298.86 159.652C298.372 159.372 297.988 158.992 297.708 158.512C297.428 158.024 297.288 157.468 297.288 156.844C297.288 156.212 297.428 155.656 297.708 155.176C297.988 154.696 298.372 154.32 298.86 154.048C299.356 153.776 299.916 153.64 300.54 153.64C301.076 153.64 301.56 153.744 301.992 153.952C302.424 154.16 302.764 154.472 303.012 154.888L302.376 155.32C302.16 155 301.892 154.764 301.572 154.612C301.252 154.46 300.904 154.384 300.528 154.384C300.08 154.384 299.676 154.488 299.316 154.696C298.956 154.896 298.672 155.18 298.464 155.548C298.256 155.916 298.152 156.348 298.152 156.844C298.152 157.34 298.256 157.772 298.464 158.14C298.672 158.508 298.956 158.796 299.316 159.004C299.676 159.204 300.08 159.304 300.528 159.304C300.904 159.304 301.252 159.228 301.572 159.076C301.892 158.924 302.16 158.692 302.376 158.38L303.012 158.812C302.764 159.22 302.424 159.532 301.992 159.748C301.56 159.956 301.076 160.06 300.54 160.06ZM304.956 160.06C304.78 160.06 304.628 159.996 304.5 159.868C304.38 159.74 304.32 159.584 304.32 159.4C304.32 159.208 304.38 159.052 304.5 158.932C304.628 158.812 304.78 158.752 304.956 158.752C305.132 158.752 305.28 158.812 305.4 158.932C305.528 159.052 305.592 159.208 305.592 159.4C305.592 159.584 305.528 159.74 305.4 159.868C305.28 159.996 305.132 160.06 304.956 160.06ZM313.391 160L310.163 155.812L310.883 155.38L314.411 160H313.391ZM307.643 160V151.6H308.507V160H307.643ZM308.243 156.148V155.368H310.871V156.148H308.243ZM310.955 155.896L310.139 155.752L313.271 151.6H314.231L310.955 155.896ZM319.589 160V158.608L319.553 158.38V156.052C319.553 155.516 319.401 155.104 319.097 154.816C318.801 154.528 318.357 154.384 317.765 154.384C317.357 154.384 316.969 154.452 316.601 154.588C316.233 154.724 315.921 154.904 315.665 155.128L315.281 154.492C315.601 154.22 315.985 154.012 316.433 153.868C316.881 153.716 317.353 153.64 317.849 153.64C318.665 153.64 319.293 153.844 319.733 154.252C320.181 154.652 320.405 155.264 320.405 156.088V160H319.589ZM317.417 160.06C316.945 160.06 316.533 159.984 316.181 159.832C315.837 159.672 315.573 159.456 315.389 159.184C315.205 158.904 315.113 158.584 315.113 158.224C315.113 157.896 315.189 157.6 315.341 157.336C315.501 157.064 315.757 156.848 316.109 156.688C316.469 156.52 316.949 156.436 317.549 156.436H319.721V157.072H317.573C316.965 157.072 316.541 157.18 316.301 157.396C316.069 157.612 315.953 157.88 315.953 158.2C315.953 158.56 316.093 158.848 316.373 159.064C316.653 159.28 317.045 159.388 317.549 159.388C318.029 159.388 318.441 159.28 318.785 159.064C319.137 158.84 319.393 158.52 319.553 158.104L319.745 158.692C319.585 159.108 319.305 159.44 318.905 159.688C318.513 159.936 318.017 160.06 317.417 160.06ZM325.925 160.06C325.381 160.06 324.889 159.936 324.449 159.688C324.009 159.432 323.657 159.068 323.393 158.596C323.137 158.116 323.009 157.532 323.009 156.844C323.009 156.156 323.137 155.576 323.393 155.104C323.649 154.624 323.997 154.26 324.437 154.012C324.877 153.764 325.373 153.64 325.925 153.64C326.525 153.64 327.061 153.776 327.533 154.048C328.013 154.312 328.389 154.688 328.661 155.176C328.933 155.656 329.069 156.212 329.069 156.844C329.069 157.484 328.933 158.044 328.661 158.524C328.389 159.004 328.013 159.38 327.533 159.652C327.061 159.924 326.525 160.06 325.925 160.06ZM322.673 162.328V153.7H323.489V155.596L323.405 156.856L323.525 158.128V162.328H322.673ZM325.865 159.304C326.313 159.304 326.713 159.204 327.065 159.004C327.417 158.796 327.697 158.508 327.905 158.14C328.113 157.764 328.217 157.332 328.217 156.844C328.217 156.356 328.113 155.928 327.905 155.56C327.697 155.192 327.417 154.904 327.065 154.696C326.713 154.488 326.313 154.384 325.865 154.384C325.417 154.384 325.013 154.488 324.653 154.696C324.301 154.904 324.021 155.192 323.813 155.56C323.613 155.928 323.513 156.356 323.513 156.844C323.513 157.332 323.613 157.764 323.813 158.14C324.021 158.508 324.301 158.796 324.653 159.004C325.013 159.204 325.417 159.304 325.865 159.304ZM331.865 160V154.216L332.081 154.444H329.477V153.7H335.105V154.444H332.501L332.717 154.216V160H331.865ZM342.481 160V153.7H343.333V160H342.481ZM338.989 155.92C339.781 155.928 340.385 156.104 340.801 156.448C341.217 156.792 341.425 157.288 341.425 157.936C341.425 158.608 341.201 159.124 340.753 159.484C340.305 159.844 339.665 160.02 338.833 160.012L336.337 160V153.7H337.189V155.896L338.989 155.92ZM338.773 159.364C339.365 159.372 339.809 159.256 340.105 159.016C340.409 158.768 340.561 158.408 340.561 157.936C340.561 157.464 340.413 157.12 340.117 156.904C339.821 156.68 339.373 156.564 338.773 156.556L337.189 156.532V159.34L338.773 159.364ZM348.9 160V153.7H351.684C352.396 153.7 352.956 153.836 353.364 154.108C353.78 154.38 353.988 154.78 353.988 155.308C353.988 155.82 353.792 156.216 353.4 156.496C353.008 156.768 352.492 156.904 351.852 156.904L352.02 156.652C352.772 156.652 353.324 156.792 353.676 157.072C354.028 157.352 354.204 157.756 354.204 158.284C354.204 158.828 354.004 159.252 353.604 159.556C353.212 159.852 352.6 160 351.768 160H348.9ZM349.728 159.328H351.732C352.268 159.328 352.672 159.244 352.944 159.076C353.224 158.9 353.364 158.62 353.364 158.236C353.364 157.852 353.24 157.572 352.992 157.396C352.744 157.22 352.352 157.132 351.816 157.132H349.728V159.328ZM349.728 156.496H351.624C352.112 156.496 352.484 156.404 352.74 156.22C353.004 156.036 353.136 155.768 353.136 155.416C353.136 155.064 353.004 154.8 352.74 154.624C352.484 154.448 352.112 154.36 351.624 154.36H349.728V156.496ZM358.597 160V159.388L362.089 155.968C362.409 155.656 362.649 155.384 362.809 155.152C362.969 154.912 363.077 154.688 363.133 154.48C363.189 154.272 363.217 154.076 363.217 153.892C363.217 153.404 363.049 153.02 362.713 152.74C362.385 152.46 361.897 152.32 361.249 152.32C360.753 152.32 360.313 152.396 359.929 152.548C359.553 152.7 359.229 152.936 358.957 153.256L358.345 152.728C358.673 152.344 359.093 152.048 359.605 151.84C360.117 151.632 360.689 151.528 361.321 151.528C361.889 151.528 362.381 151.62 362.797 151.804C363.213 151.98 363.533 152.24 363.757 152.584C363.989 152.928 364.105 153.332 364.105 153.796C364.105 154.068 364.065 154.336 363.985 154.6C363.913 154.864 363.777 155.144 363.577 155.44C363.385 155.728 363.101 156.056 362.725 156.424L359.521 159.568L359.281 159.232H364.489V160H358.597ZM368.898 160.072C368.25 160.072 367.674 159.904 367.17 159.568C366.666 159.224 366.27 158.736 365.982 158.104C365.694 157.464 365.55 156.696 365.55 155.8C365.55 154.904 365.694 154.14 365.982 153.508C366.27 152.868 366.666 152.38 367.17 152.044C367.674 151.7 368.25 151.528 368.898 151.528C369.546 151.528 370.122 151.7 370.626 152.044C371.13 152.38 371.526 152.868 371.814 153.508C372.11 154.14 372.258 154.904 372.258 155.8C372.258 156.696 372.11 157.464 371.814 158.104C371.526 158.736 371.13 159.224 370.626 159.568C370.122 159.904 369.546 160.072 368.898 160.072ZM368.898 159.28C369.394 159.28 369.826 159.148 370.194 158.884C370.562 158.612 370.85 158.22 371.058 157.708C371.266 157.188 371.37 156.552 371.37 155.8C371.37 155.048 371.266 154.416 371.058 153.904C370.85 153.384 370.562 152.992 370.194 152.728C369.826 152.456 369.394 152.32 368.898 152.32C368.418 152.32 367.99 152.456 367.614 152.728C367.238 152.992 366.946 153.384 366.738 153.904C366.53 154.416 366.426 155.048 366.426 155.8C366.426 156.552 366.53 157.188 366.738 157.708C366.946 158.22 367.238 158.612 367.614 158.884C367.99 159.148 368.418 159.28 368.898 159.28ZM373.339 160V159.388L376.831 155.968C377.151 155.656 377.391 155.384 377.551 155.152C377.711 154.912 377.819 154.688 377.875 154.48C377.931 154.272 377.959 154.076 377.959 153.892C377.959 153.404 377.791 153.02 377.455 152.74C377.127 152.46 376.639 152.32 375.991 152.32C375.495 152.32 375.055 152.396 374.671 152.548C374.295 152.7 373.971 152.936 373.699 153.256L373.087 152.728C373.415 152.344 373.835 152.048 374.347 151.84C374.859 151.632 375.431 151.528 376.063 151.528C376.631 151.528 377.123 151.62 377.539 151.804C377.955 151.98 378.275 152.24 378.499 152.584C378.731 152.928 378.847 153.332 378.847 153.796C378.847 154.068 378.807 154.336 378.727 154.6C378.655 154.864 378.519 155.144 378.319 155.44C378.127 155.728 377.843 156.056 377.467 156.424L374.263 159.568L374.023 159.232H379.231V160H373.339ZM382.823 160.072C382.215 160.072 381.639 159.976 381.095 159.784C380.559 159.584 380.127 159.32 379.799 158.992L380.219 158.308C380.491 158.588 380.855 158.82 381.311 159.004C381.775 159.188 382.279 159.28 382.823 159.28C383.519 159.28 384.051 159.128 384.419 158.824C384.795 158.52 384.983 158.112 384.983 157.6C384.983 157.088 384.799 156.68 384.431 156.376C384.071 156.072 383.499 155.92 382.715 155.92H382.115V155.284L384.707 152.032L384.827 152.368H380.147V151.6H385.547V152.212L382.955 155.464L382.535 155.188H382.859C383.867 155.188 384.619 155.412 385.115 155.86C385.619 156.308 385.871 156.884 385.871 157.588C385.871 158.06 385.759 158.484 385.535 158.86C385.311 159.236 384.971 159.532 384.515 159.748C384.067 159.964 383.503 160.072 382.823 160.072ZM390.817 160V153.7H395.281V154.444H391.453L391.669 154.228V160H390.817ZM398.812 160.06C398.204 160.06 397.656 159.924 397.168 159.652C396.688 159.372 396.308 158.992 396.028 158.512C395.748 158.024 395.608 157.468 395.608 156.844C395.608 156.212 395.748 155.656 396.028 155.176C396.308 154.696 396.688 154.32 397.168 154.048C397.648 153.776 398.196 153.64 398.812 153.64C399.436 153.64 399.988 153.776 400.468 154.048C400.956 154.32 401.336 154.696 401.608 155.176C401.888 155.656 402.028 156.212 402.028 156.844C402.028 157.468 401.888 158.024 401.608 158.512C401.336 158.992 400.956 159.372 400.468 159.652C399.98 159.924 399.428 160.06 398.812 160.06ZM398.812 159.304C399.268 159.304 399.672 159.204 400.024 159.004C400.376 158.796 400.652 158.508 400.852 158.14C401.06 157.764 401.164 157.332 401.164 156.844C401.164 156.348 401.06 155.916 400.852 155.548C400.652 155.18 400.376 154.896 400.024 154.696C399.672 154.488 399.272 154.384 398.824 154.384C398.376 154.384 397.976 154.488 397.624 154.696C397.272 154.896 396.992 155.18 396.784 155.548C396.576 155.916 396.472 156.348 396.472 156.844C396.472 157.332 396.576 157.764 396.784 158.14C396.992 158.508 397.272 158.796 397.624 159.004C397.976 159.204 398.372 159.304 398.812 159.304ZM408.134 159.592V154.444H405.098L405.026 155.848C405.01 156.272 404.982 156.688 404.942 157.096C404.91 157.504 404.85 157.88 404.762 158.224C404.682 158.56 404.566 158.836 404.414 159.052C404.262 159.26 404.066 159.38 403.826 159.412L402.974 159.256C403.222 159.264 403.426 159.176 403.586 158.992C403.746 158.8 403.87 158.54 403.958 158.212C404.046 157.884 404.11 157.512 404.15 157.096C404.19 156.672 404.222 156.24 404.246 155.8L404.33 153.7H408.986V159.592H408.134ZM402.71 161.524V159.256H409.97V161.524H409.166V160H403.514V161.524H402.71ZM411.738 162.388C411.442 162.388 411.158 162.34 410.886 162.244C410.622 162.148 410.394 162.004 410.202 161.812L410.598 161.176C410.758 161.328 410.93 161.444 411.114 161.524C411.306 161.612 411.518 161.656 411.75 161.656C412.03 161.656 412.27 161.576 412.47 161.416C412.678 161.264 412.874 160.992 413.058 160.6L413.466 159.676L413.562 159.544L416.154 153.7H416.994L413.838 160.756C413.662 161.164 413.466 161.488 413.25 161.728C413.042 161.968 412.814 162.136 412.566 162.232C412.318 162.336 412.042 162.388 411.738 162.388ZM413.418 160.18L410.514 153.7H411.402L413.97 159.484L413.418 160.18Z" fill="#292929"/>
</svg>
