<svg width="317" height="54" viewBox="0 0 317 54" fill="none" xmlns="http://www.w3.org/2000/svg">
<mask id="path-1-outside-1_3_134" maskUnits="userSpaceOnUse" x="-2" y="-2" width="321" height="58" fill="black">
<rect fill="white" x="-2" y="-2" width="321" height="58"/>
<path d="M0.0460003 53V12.4H7.818L25.102 41.052H20.984L37.978 12.4H45.75L45.808 53H36.992L36.934 25.914H38.616L24.986 48.708H20.81L6.89 25.914H8.862V53H0.0460003ZM75.3237 53.696C72.1143 53.696 69.137 53.174 66.3917 52.13C63.685 51.086 61.3263 49.6167 59.3157 47.722C57.3437 45.8273 55.797 43.604 54.6757 41.052C53.593 38.5 53.0517 35.716 53.0517 32.7C53.0517 29.684 53.593 26.9 54.6757 24.348C55.797 21.796 57.363 19.5727 59.3737 17.678C61.3843 15.7833 63.743 14.314 66.4497 13.27C69.1563 12.226 72.095 11.704 75.2657 11.704C78.475 11.704 81.4137 12.226 84.0817 13.27C86.7883 14.314 89.1277 15.7833 91.0997 17.678C93.1103 19.5727 94.6763 21.796 95.7977 24.348C96.919 26.8613 97.4797 29.6453 97.4797 32.7C97.4797 35.716 96.919 38.5193 95.7977 41.11C94.6763 43.662 93.1103 45.8853 91.0997 47.78C89.1277 49.636 86.7883 51.086 84.0817 52.13C81.4137 53.174 78.4943 53.696 75.3237 53.696ZM75.2657 45.692C77.083 45.692 78.7457 45.3827 80.2537 44.764C81.8003 44.1453 83.1537 43.256 84.3137 42.096C85.4737 40.936 86.363 39.5633 86.9817 37.978C87.639 36.3927 87.9677 34.6333 87.9677 32.7C87.9677 30.7667 87.639 29.0073 86.9817 27.422C86.363 25.8367 85.4737 24.464 84.3137 23.304C83.1923 22.144 81.8583 21.2547 80.3117 20.636C78.765 20.0173 77.083 19.708 75.2657 19.708C73.4483 19.708 71.7663 20.0173 70.2197 20.636C68.7117 21.2547 67.3777 22.144 66.2177 23.304C65.0577 24.464 64.149 25.8367 63.4917 27.422C62.873 29.0073 62.5637 30.7667 62.5637 32.7C62.5637 34.5947 62.873 36.354 63.4917 37.978C64.149 39.5633 65.0383 40.936 66.1597 42.096C67.3197 43.256 68.673 44.1453 70.2197 44.764C71.7663 45.3827 73.4483 45.692 75.2657 45.692ZM104.718 53V12.4H122.292C125.927 12.4 129.059 12.9993 131.688 14.198C134.317 15.358 136.347 17.04 137.778 19.244C139.209 21.448 139.924 24.0773 139.924 27.132C139.924 30.148 139.209 32.758 137.778 34.962C136.347 37.166 134.317 38.8673 131.688 40.066C129.059 41.226 125.927 41.806 122.292 41.806H109.938L114.114 37.572V53H104.718ZM114.114 38.616L109.938 34.15H121.77C124.67 34.15 126.835 33.5313 128.266 32.294C129.697 31.0567 130.412 29.336 130.412 27.132C130.412 24.8893 129.697 23.1493 128.266 21.912C126.835 20.6747 124.67 20.056 121.77 20.056H109.938L114.114 15.59V38.616ZM165.887 53.696C162.755 53.696 159.835 53.1933 157.129 52.188C154.461 51.144 152.141 49.6747 150.169 47.78C148.197 45.8853 146.65 43.662 145.529 41.11C144.446 38.558 143.905 35.7547 143.905 32.7C143.905 29.6453 144.446 26.842 145.529 24.29C146.65 21.738 148.197 19.5147 150.169 17.62C152.179 15.7253 154.519 14.2753 157.187 13.27C159.855 12.226 162.774 11.704 165.945 11.704C169.463 11.704 172.634 12.3227 175.457 13.56C178.318 14.7587 180.715 16.5373 182.649 18.896L176.617 24.464C175.225 22.8787 173.678 21.6993 171.977 20.926C170.275 20.114 168.419 19.708 166.409 19.708C164.514 19.708 162.774 20.0173 161.189 20.636C159.603 21.2547 158.231 22.144 157.071 23.304C155.911 24.464 155.002 25.8367 154.345 27.422C153.726 29.0073 153.417 30.7667 153.417 32.7C153.417 34.6333 153.726 36.3927 154.345 37.978C155.002 39.5633 155.911 40.936 157.071 42.096C158.231 43.256 159.603 44.1453 161.189 44.764C162.774 45.3827 164.514 45.692 166.409 45.692C168.419 45.692 170.275 45.3053 171.977 44.532C173.678 43.72 175.225 42.502 176.617 40.878L182.649 46.446C180.715 48.8047 178.318 50.6027 175.457 51.84C172.634 53.0773 169.444 53.696 165.887 53.696ZM215.047 53L202.403 33.454L210.001 28.872L225.719 53H215.047ZM188.657 53V12.4H197.995V53H188.657ZM195.269 36.644V28.814H209.421V36.644H195.269ZM210.871 33.744L202.229 32.7L215.395 12.4H225.313L210.871 33.744ZM249.38 53.696C246.171 53.696 243.194 53.174 240.448 52.13C237.742 51.086 235.383 49.6167 233.372 47.722C231.4 45.8273 229.854 43.604 228.732 41.052C227.65 38.5 227.108 35.716 227.108 32.7C227.108 29.684 227.65 26.9 228.732 24.348C229.854 21.796 231.42 19.5727 233.43 17.678C235.441 15.7833 237.8 14.314 240.506 13.27C243.213 12.226 246.152 11.704 249.322 11.704C252.532 11.704 255.47 12.226 258.138 13.27C260.845 14.314 263.184 15.7833 265.156 17.678C267.167 19.5727 268.733 21.796 269.854 24.348C270.976 26.8613 271.536 29.6453 271.536 32.7C271.536 35.716 270.976 38.5193 269.854 41.11C268.733 43.662 267.167 45.8853 265.156 47.78C263.184 49.636 260.845 51.086 258.138 52.13C255.47 53.174 252.551 53.696 249.38 53.696ZM249.322 45.692C251.14 45.692 252.802 45.3827 254.31 44.764C255.857 44.1453 257.21 43.256 258.37 42.096C259.53 40.936 260.42 39.5633 261.038 37.978C261.696 36.3927 262.024 34.6333 262.024 32.7C262.024 30.7667 261.696 29.0073 261.038 27.422C260.42 25.8367 259.53 24.464 258.37 23.304C257.249 22.144 255.915 21.2547 254.368 20.636C252.822 20.0173 251.14 19.708 249.322 19.708C247.505 19.708 245.823 20.0173 244.276 20.636C242.768 21.2547 241.434 22.144 240.274 23.304C239.114 24.464 238.206 25.8367 237.548 27.422C236.93 29.0073 236.62 30.7667 236.62 32.7C236.62 34.5947 236.93 36.354 237.548 37.978C238.206 39.5633 239.095 40.936 240.216 42.096C241.376 43.256 242.73 44.1453 244.276 44.764C245.823 45.3827 247.505 45.692 249.322 45.692ZM278.775 53V12.4H288.113V38.848L307.485 12.4H316.301V53H307.021V26.61L287.649 53H278.775ZM297.509 9.79C293.642 9.79 290.8 9.01666 288.983 7.47C287.204 5.92333 286.295 3.73866 286.257 0.915996H292.695C292.733 2.308 293.139 3.37133 293.913 4.106C294.725 4.802 295.923 5.15 297.509 5.15C299.055 5.15 300.235 4.802 301.047 4.106C301.859 3.37133 302.284 2.308 302.323 0.915996H308.761C308.722 3.73866 307.794 5.92333 305.977 7.47C304.159 9.01666 301.337 9.79 297.509 9.79Z"/>
</mask>
<path d="M0.0460003 53V12.4H7.818L25.102 41.052H20.984L37.978 12.4H45.75L45.808 53H36.992L36.934 25.914H38.616L24.986 48.708H20.81L6.89 25.914H8.862V53H0.0460003ZM75.3237 53.696C72.1143 53.696 69.137 53.174 66.3917 52.13C63.685 51.086 61.3263 49.6167 59.3157 47.722C57.3437 45.8273 55.797 43.604 54.6757 41.052C53.593 38.5 53.0517 35.716 53.0517 32.7C53.0517 29.684 53.593 26.9 54.6757 24.348C55.797 21.796 57.363 19.5727 59.3737 17.678C61.3843 15.7833 63.743 14.314 66.4497 13.27C69.1563 12.226 72.095 11.704 75.2657 11.704C78.475 11.704 81.4137 12.226 84.0817 13.27C86.7883 14.314 89.1277 15.7833 91.0997 17.678C93.1103 19.5727 94.6763 21.796 95.7977 24.348C96.919 26.8613 97.4797 29.6453 97.4797 32.7C97.4797 35.716 96.919 38.5193 95.7977 41.11C94.6763 43.662 93.1103 45.8853 91.0997 47.78C89.1277 49.636 86.7883 51.086 84.0817 52.13C81.4137 53.174 78.4943 53.696 75.3237 53.696ZM75.2657 45.692C77.083 45.692 78.7457 45.3827 80.2537 44.764C81.8003 44.1453 83.1537 43.256 84.3137 42.096C85.4737 40.936 86.363 39.5633 86.9817 37.978C87.639 36.3927 87.9677 34.6333 87.9677 32.7C87.9677 30.7667 87.639 29.0073 86.9817 27.422C86.363 25.8367 85.4737 24.464 84.3137 23.304C83.1923 22.144 81.8583 21.2547 80.3117 20.636C78.765 20.0173 77.083 19.708 75.2657 19.708C73.4483 19.708 71.7663 20.0173 70.2197 20.636C68.7117 21.2547 67.3777 22.144 66.2177 23.304C65.0577 24.464 64.149 25.8367 63.4917 27.422C62.873 29.0073 62.5637 30.7667 62.5637 32.7C62.5637 34.5947 62.873 36.354 63.4917 37.978C64.149 39.5633 65.0383 40.936 66.1597 42.096C67.3197 43.256 68.673 44.1453 70.2197 44.764C71.7663 45.3827 73.4483 45.692 75.2657 45.692ZM104.718 53V12.4H122.292C125.927 12.4 129.059 12.9993 131.688 14.198C134.317 15.358 136.347 17.04 137.778 19.244C139.209 21.448 139.924 24.0773 139.924 27.132C139.924 30.148 139.209 32.758 137.778 34.962C136.347 37.166 134.317 38.8673 131.688 40.066C129.059 41.226 125.927 41.806 122.292 41.806H109.938L114.114 37.572V53H104.718ZM114.114 38.616L109.938 34.15H121.77C124.67 34.15 126.835 33.5313 128.266 32.294C129.697 31.0567 130.412 29.336 130.412 27.132C130.412 24.8893 129.697 23.1493 128.266 21.912C126.835 20.6747 124.67 20.056 121.77 20.056H109.938L114.114 15.59V38.616ZM165.887 53.696C162.755 53.696 159.835 53.1933 157.129 52.188C154.461 51.144 152.141 49.6747 150.169 47.78C148.197 45.8853 146.65 43.662 145.529 41.11C144.446 38.558 143.905 35.7547 143.905 32.7C143.905 29.6453 144.446 26.842 145.529 24.29C146.65 21.738 148.197 19.5147 150.169 17.62C152.179 15.7253 154.519 14.2753 157.187 13.27C159.855 12.226 162.774 11.704 165.945 11.704C169.463 11.704 172.634 12.3227 175.457 13.56C178.318 14.7587 180.715 16.5373 182.649 18.896L176.617 24.464C175.225 22.8787 173.678 21.6993 171.977 20.926C170.275 20.114 168.419 19.708 166.409 19.708C164.514 19.708 162.774 20.0173 161.189 20.636C159.603 21.2547 158.231 22.144 157.071 23.304C155.911 24.464 155.002 25.8367 154.345 27.422C153.726 29.0073 153.417 30.7667 153.417 32.7C153.417 34.6333 153.726 36.3927 154.345 37.978C155.002 39.5633 155.911 40.936 157.071 42.096C158.231 43.256 159.603 44.1453 161.189 44.764C162.774 45.3827 164.514 45.692 166.409 45.692C168.419 45.692 170.275 45.3053 171.977 44.532C173.678 43.72 175.225 42.502 176.617 40.878L182.649 46.446C180.715 48.8047 178.318 50.6027 175.457 51.84C172.634 53.0773 169.444 53.696 165.887 53.696ZM215.047 53L202.403 33.454L210.001 28.872L225.719 53H215.047ZM188.657 53V12.4H197.995V53H188.657ZM195.269 36.644V28.814H209.421V36.644H195.269ZM210.871 33.744L202.229 32.7L215.395 12.4H225.313L210.871 33.744ZM249.38 53.696C246.171 53.696 243.194 53.174 240.448 52.13C237.742 51.086 235.383 49.6167 233.372 47.722C231.4 45.8273 229.854 43.604 228.732 41.052C227.65 38.5 227.108 35.716 227.108 32.7C227.108 29.684 227.65 26.9 228.732 24.348C229.854 21.796 231.42 19.5727 233.43 17.678C235.441 15.7833 237.8 14.314 240.506 13.27C243.213 12.226 246.152 11.704 249.322 11.704C252.532 11.704 255.47 12.226 258.138 13.27C260.845 14.314 263.184 15.7833 265.156 17.678C267.167 19.5727 268.733 21.796 269.854 24.348C270.976 26.8613 271.536 29.6453 271.536 32.7C271.536 35.716 270.976 38.5193 269.854 41.11C268.733 43.662 267.167 45.8853 265.156 47.78C263.184 49.636 260.845 51.086 258.138 52.13C255.47 53.174 252.551 53.696 249.38 53.696ZM249.322 45.692C251.14 45.692 252.802 45.3827 254.31 44.764C255.857 44.1453 257.21 43.256 258.37 42.096C259.53 40.936 260.42 39.5633 261.038 37.978C261.696 36.3927 262.024 34.6333 262.024 32.7C262.024 30.7667 261.696 29.0073 261.038 27.422C260.42 25.8367 259.53 24.464 258.37 23.304C257.249 22.144 255.915 21.2547 254.368 20.636C252.822 20.0173 251.14 19.708 249.322 19.708C247.505 19.708 245.823 20.0173 244.276 20.636C242.768 21.2547 241.434 22.144 240.274 23.304C239.114 24.464 238.206 25.8367 237.548 27.422C236.93 29.0073 236.62 30.7667 236.62 32.7C236.62 34.5947 236.93 36.354 237.548 37.978C238.206 39.5633 239.095 40.936 240.216 42.096C241.376 43.256 242.73 44.1453 244.276 44.764C245.823 45.3827 247.505 45.692 249.322 45.692ZM278.775 53V12.4H288.113V38.848L307.485 12.4H316.301V53H307.021V26.61L287.649 53H278.775ZM297.509 9.79C293.642 9.79 290.8 9.01666 288.983 7.47C287.204 5.92333 286.295 3.73866 286.257 0.915996H292.695C292.733 2.308 293.139 3.37133 293.913 4.106C294.725 4.802 295.923 5.15 297.509 5.15C299.055 5.15 300.235 4.802 301.047 4.106C301.859 3.37133 302.284 2.308 302.323 0.915996H308.761C308.722 3.73866 307.794 5.92333 305.977 7.47C304.159 9.01666 301.337 9.79 297.509 9.79Z" fill="white"/>
<path d="M0.0460005 53H-1.954V55H0.0460005V53ZM0.0460005 12.4V10.4H-1.954V12.4H0.0460005ZM7.818 12.4L9.53053 11.3669L8.94724 10.4H7.818V12.4ZM25.102 41.052V43.052H28.6442L26.8145 40.0189L25.102 41.052ZM20.984 41.052L19.2638 40.0317L17.4724 43.052H20.984V41.052ZM37.978 12.4V10.4H36.8389L36.2578 11.3797L37.978 12.4ZM45.75 12.4L47.75 12.3971L47.7471 10.4H45.75V12.4ZM45.808 53V55H47.8109L47.808 52.9971L45.808 53ZM36.992 53L34.992 53.0043L34.9963 55H36.992V53ZM36.934 25.914V23.914H34.9297L34.934 25.9183L36.934 25.914ZM38.616 25.914L40.3325 26.9404L42.1422 23.914H38.616V25.914ZM24.986 48.708V50.708H26.1204L26.7025 49.7344L24.986 48.708ZM20.81 48.708L19.1031 49.7504L19.6879 50.708H20.81V48.708ZM6.89 25.914V23.914H3.32518L5.18312 26.9564L6.89 25.914ZM8.862 25.914H10.862V23.914H8.862V25.914ZM8.862 53V55H10.862V53H8.862ZM2.046 53V12.4H-1.954V53H2.046ZM0.0460005 14.4H7.818V10.4H0.0460005V14.4ZM6.10547 13.4331L23.3895 42.0851L26.8145 40.0189L9.53053 11.3669L6.10547 13.4331ZM25.102 39.052H20.984V43.052H25.102V39.052ZM22.7042 42.0723L39.6982 13.4203L36.2578 11.3797L19.2638 40.0317L22.7042 42.0723ZM37.978 14.4H45.75V10.4H37.978V14.4ZM43.75 12.4029L43.808 53.0029L47.808 52.9971L47.75 12.3971L43.75 12.4029ZM45.808 51H36.992V55H45.808V51ZM38.992 52.9957L38.934 25.9097L34.934 25.9183L34.992 53.0043L38.992 52.9957ZM36.934 27.914H38.616V23.914H36.934V27.914ZM36.8995 24.8876L23.2695 47.6816L26.7025 49.7344L40.3325 26.9404L36.8995 24.8876ZM24.986 46.708H20.81V50.708H24.986V46.708ZM22.5169 47.6656L8.59689 24.8716L5.18312 26.9564L19.1031 49.7504L22.5169 47.6656ZM6.89 27.914H8.862V23.914H6.89V27.914ZM6.862 25.914V53H10.862V25.914H6.862ZM8.862 51H0.0460005V55H8.862V51ZM66.3917 52.13L65.6719 53.996L65.6808 53.9994L66.3917 52.13ZM59.3157 47.722L57.93 49.1642L57.937 49.1709L57.9441 49.1776L59.3157 47.722ZM54.6757 41.052L52.8345 41.8331L52.8395 41.8449L52.8446 41.8565L54.6757 41.052ZM54.6757 24.348L52.8446 23.5435L52.8395 23.5551L52.8345 23.5669L54.6757 24.348ZM59.3737 17.678L58.0021 16.2224V16.2224L59.3737 17.678ZM66.4497 13.27L65.7299 11.404V11.404L66.4497 13.27ZM84.0817 13.27L83.3529 15.1325L83.3619 15.136L84.0817 13.27ZM91.0997 17.678L89.714 19.1202L89.721 19.1269L89.7281 19.1336L91.0997 17.678ZM95.7977 24.348L93.9666 25.1526L93.9712 25.1629L95.7977 24.348ZM95.7977 41.11L97.6287 41.9146L97.6331 41.9044L95.7977 41.11ZM91.0997 47.78L92.4704 49.2364L92.4713 49.2356L91.0997 47.78ZM84.0817 52.13L83.3619 50.264L83.3529 50.2675L84.0817 52.13ZM80.2537 44.764L79.5109 42.907L79.5027 42.9103L79.4945 42.9137L80.2537 44.764ZM84.3137 42.096L82.8994 40.6818L84.3137 42.096ZM86.9817 37.978L85.1342 37.212L85.1261 37.2314L85.1185 37.2509L86.9817 37.978ZM86.9817 27.422L85.1185 28.1491L85.1261 28.1686L85.1342 28.188L86.9817 27.422ZM84.3137 23.304L82.8757 24.694L82.8875 24.7062L82.8994 24.7182L84.3137 23.304ZM80.3117 20.636L79.5689 22.493L80.3117 20.636ZM70.2197 20.636L69.4769 18.779L69.4687 18.7823L69.4605 18.7857L70.2197 20.636ZM66.2177 23.304L67.6319 24.7182L66.2177 23.304ZM63.4917 27.422L61.6442 26.656L61.6361 26.6754L61.6285 26.6949L63.4917 27.422ZM63.4917 37.978L61.6227 38.69L61.633 38.7172L61.6442 38.744L63.4917 37.978ZM66.1597 42.096L64.7217 43.486L64.7335 43.4982L64.7454 43.5102L66.1597 42.096ZM70.2197 44.764L70.9624 42.907L70.2197 44.764ZM75.3237 51.696C72.3347 51.696 69.6007 51.2106 67.1026 50.2606L65.6808 53.9994C68.6733 55.1374 71.8939 55.696 75.3237 55.696V51.696ZM67.1114 50.264C64.6343 49.3085 62.4999 47.9745 60.6873 46.2664L57.9441 49.1776C60.1527 51.2588 62.7357 52.8635 65.6719 53.996L67.1114 50.264ZM60.7013 46.2798C58.9218 44.57 57.5248 42.5645 56.5067 40.2475L52.8446 41.8565C54.0692 44.6435 55.7655 47.0846 57.93 49.1642L60.7013 46.2798ZM56.5168 40.2709C55.5479 37.987 55.0517 35.4714 55.0517 32.7H51.0517C51.0517 35.9606 51.6381 39.013 52.8345 41.8331L56.5168 40.2709ZM55.0517 32.7C55.0517 29.9286 55.5479 27.413 56.5168 25.1291L52.8345 23.5669C51.6381 26.387 51.0517 29.4394 51.0517 32.7H55.0517ZM56.5067 25.1525C57.5211 22.8439 58.9316 20.8426 60.7453 19.1336L58.0021 16.2224C55.7943 18.3028 54.0729 20.7481 52.8446 23.5435L56.5067 25.1525ZM60.7453 19.1336C62.5579 17.4255 64.6923 16.0915 67.1694 15.136L65.7299 11.404C62.7937 12.5365 60.2107 14.1412 58.0021 16.2224L60.7453 19.1336ZM67.1694 15.136C69.626 14.1885 72.3182 13.704 75.2657 13.704V9.704C71.8718 9.704 68.6867 10.2635 65.7299 11.404L67.1694 15.136ZM75.2657 13.704C78.2555 13.704 80.9434 14.1896 83.3529 15.1325L84.8105 11.4075C81.884 10.2624 78.6945 9.704 75.2657 9.704V13.704ZM83.3619 15.136C85.836 16.0903 87.9451 17.4207 89.714 19.1202L92.4853 16.2358C90.3102 14.146 87.7407 12.5377 84.8014 11.404L83.3619 15.136ZM89.7281 19.1336C91.5417 20.8426 92.9522 22.8439 93.9666 25.1525L97.6287 23.5435C96.4004 20.7481 94.679 18.3028 92.4713 16.2224L89.7281 19.1336ZM93.9712 25.1629C94.9661 27.3929 95.4797 29.8951 95.4797 32.7H99.4797C99.4797 29.3956 98.8719 26.3298 97.6241 23.5331L93.9712 25.1629ZM95.4797 32.7C95.4797 35.4617 94.9677 37.9925 93.9622 40.3156L97.6331 41.9044C98.8703 39.0462 99.4797 35.9703 99.4797 32.7H95.4797ZM93.9666 40.3055C92.9522 42.6141 91.5417 44.6154 89.7281 46.3244L92.4713 49.2356C94.679 47.1552 96.4004 44.7099 97.6287 41.9145L93.9666 40.3055ZM89.7289 46.3236C87.9585 47.9899 85.8445 49.3064 83.3619 50.264L84.8014 53.996C87.7321 52.8656 90.2968 51.2821 92.4704 49.2364L89.7289 46.3236ZM83.3529 50.2675C80.9406 51.2114 78.2715 51.696 75.3237 51.696V55.696C78.7171 55.696 81.8867 55.1366 84.8105 53.9925L83.3529 50.2675ZM75.2657 47.692C77.3134 47.692 79.2377 47.3426 81.0128 46.6143L79.4945 42.9137C78.2536 43.4228 76.8525 43.692 75.2657 43.692V47.692ZM80.9964 46.621C82.7906 45.9033 84.3733 44.8647 85.7279 43.5102L82.8994 40.6818C81.934 41.6472 80.8101 42.3874 79.5109 42.907L80.9964 46.621ZM85.7279 43.5102C87.0908 42.1473 88.1295 40.5382 88.8448 38.7051L85.1185 37.2509C84.5965 38.5885 83.8566 39.7247 82.8994 40.6818L85.7279 43.5102ZM88.8291 38.744C89.5991 36.887 89.9677 34.8631 89.9677 32.7H85.9677C85.9677 34.4036 85.6788 35.8983 85.1342 37.212L88.8291 38.744ZM89.9677 32.7C89.9677 30.5369 89.5991 28.513 88.8291 26.656L85.1342 28.188C85.6788 29.5017 85.9677 30.9964 85.9677 32.7H89.9677ZM88.8448 26.6949C88.1295 24.8618 87.0908 23.2527 85.7279 21.8898L82.8994 24.7182C83.8566 25.6753 84.5965 26.8115 85.1185 28.1491L88.8448 26.6949ZM85.7516 21.914C84.4277 20.5443 82.8545 19.499 81.0544 18.779L79.5689 22.493C80.8622 23.0103 81.957 23.7437 82.8757 24.694L85.7516 21.914ZM81.0544 18.779C79.2509 18.0576 77.3142 17.708 75.2657 17.708V21.708C76.8518 21.708 78.2791 21.977 79.5689 22.493L81.0544 18.779ZM75.2657 17.708C73.2171 17.708 71.2804 18.0576 69.4769 18.779L70.9624 22.493C72.2522 21.977 73.6795 21.708 75.2657 21.708V17.708ZM69.4605 18.7857C67.7058 19.5055 66.1495 20.5437 64.8034 21.8898L67.6319 24.7182C68.6058 23.7443 69.7175 23.0038 70.9788 22.4863L69.4605 18.7857ZM64.8034 21.8898C63.4494 23.2439 62.3973 24.8396 61.6442 26.656L65.3391 28.188C65.9007 26.8337 66.6659 25.6841 67.6319 24.7182L64.8034 21.8898ZM61.6285 26.6949C60.908 28.5413 60.5637 30.5515 60.5637 32.7H64.5637C64.5637 30.9819 64.838 29.4733 65.3548 28.1491L61.6285 26.6949ZM60.5637 32.7C60.5637 34.816 60.9099 36.8189 61.6227 38.69L65.3606 37.266C64.8361 35.8891 64.5637 34.3733 64.5637 32.7H60.5637ZM61.6442 38.744C62.3914 40.5463 63.415 42.1343 64.7217 43.486L67.5976 40.706C66.6616 39.7377 65.9065 38.5804 65.3391 37.212L61.6442 38.744ZM64.7454 43.5102C66.1 44.8647 67.6827 45.9033 69.4769 46.621L70.9624 42.907C69.6633 42.3874 68.5393 41.6472 67.5739 40.6818L64.7454 43.5102ZM69.4769 46.621C71.2804 47.3424 73.2171 47.692 75.2657 47.692V43.692C73.6795 43.692 72.2522 43.423 70.9624 42.907L69.4769 46.621ZM104.718 53H102.718V55H104.718V53ZM104.718 12.4V10.4H102.718V12.4H104.718ZM131.688 14.198L130.858 16.0178L130.869 16.0229L130.881 16.0278L131.688 14.198ZM137.778 19.244L136.1 20.3329L137.778 19.244ZM131.688 40.066L132.495 41.8958L132.506 41.8909L132.518 41.8858L131.688 40.066ZM109.938 41.806L108.514 40.4016L105.156 43.806H109.938V41.806ZM114.114 37.572H116.114V32.6961L112.69 36.1676L114.114 37.572ZM114.114 53V55H116.114V53H114.114ZM114.114 38.616L112.653 39.982L116.114 43.6832V38.616H114.114ZM109.938 34.15V32.15H105.33L108.477 35.516L109.938 34.15ZM109.938 20.056L108.477 18.69L105.33 22.056H109.938V20.056ZM114.114 15.59H116.114V10.5228L112.653 14.224L114.114 15.59ZM106.718 53V12.4H102.718V53H106.718ZM104.718 14.4H122.292V10.4H104.718V14.4ZM122.292 14.4C125.712 14.4 128.547 14.9643 130.858 16.0178L132.518 12.3782C129.57 11.0343 126.141 10.4 122.292 10.4V14.4ZM130.881 16.0278C133.189 17.0461 134.901 18.4857 136.1 20.3329L139.455 18.1551C137.793 15.5942 135.446 13.6699 132.495 12.3682L130.881 16.0278ZM136.1 20.3329C137.288 22.1628 137.924 24.3996 137.924 27.132H141.924C141.924 23.755 141.129 20.7332 139.455 18.1551L136.1 20.3329ZM137.924 27.132C137.924 29.8201 137.291 32.0391 136.1 33.8731L139.455 36.0509C141.126 33.4769 141.924 30.4759 141.924 27.132H137.924ZM136.1 33.8731C134.897 35.7262 133.177 37.1891 130.858 38.2462L132.518 41.8858C135.457 40.5455 137.797 38.6058 139.455 36.0509L136.1 33.8731ZM130.881 38.2362C128.563 39.2584 125.72 39.806 122.292 39.806V43.806C126.133 43.806 129.554 43.1936 132.495 41.8958L130.881 38.2362ZM122.292 39.806H109.938V43.806H122.292V39.806ZM111.362 43.2104L115.538 38.9764L112.69 36.1676L108.514 40.4016L111.362 43.2104ZM112.114 37.572V53H116.114V37.572H112.114ZM114.114 51H104.718V55H114.114V51ZM115.575 37.25L111.399 32.784L108.477 35.516L112.653 39.982L115.575 37.25ZM109.938 36.15H121.77V32.15H109.938V36.15ZM121.77 36.15C124.905 36.15 127.63 35.4886 129.574 33.8067L126.958 30.7813C126.041 31.5741 124.435 32.15 121.77 32.15V36.15ZM129.574 33.8067C131.518 32.1252 132.412 29.8106 132.412 27.132H128.412C128.412 28.8614 127.875 29.9882 126.958 30.7813L129.574 33.8067ZM132.412 27.132C132.412 24.4272 131.527 22.0878 129.574 20.3993L126.958 23.4247C127.867 24.2109 128.412 25.3515 128.412 27.132H132.412ZM129.574 20.3993C127.63 18.7174 124.905 18.056 121.77 18.056V22.056C124.435 22.056 126.041 22.6319 126.958 23.4247L129.574 20.3993ZM121.77 18.056H109.938V22.056H121.77V18.056ZM111.399 21.422L115.575 16.956L112.653 14.224L108.477 18.69L111.399 21.422ZM112.114 15.59V38.616H116.114V15.59H112.114ZM157.129 52.188L156.4 54.0505L156.416 54.0568L156.432 54.0629L157.129 52.188ZM150.169 47.78L148.783 49.2222L150.169 47.78ZM145.529 41.11L143.687 41.8911L143.692 41.9029L143.698 41.9145L145.529 41.11ZM145.529 24.29L143.698 23.4855L143.692 23.4971L143.687 23.5089L145.529 24.29ZM150.169 17.62L148.797 16.1644L148.79 16.1711L148.783 16.1778L150.169 17.62ZM157.187 13.27L157.892 15.1415L157.904 15.1371L157.915 15.1325L157.187 13.27ZM175.457 13.56L174.654 15.3917L174.669 15.3983L174.684 15.4047L175.457 13.56ZM182.649 18.896L184.005 20.3656L185.391 19.0866L184.195 17.6281L182.649 18.896ZM176.617 24.464L175.114 25.7836L176.467 27.3243L177.973 25.9336L176.617 24.464ZM171.977 20.926L171.115 22.731L171.132 22.739L171.149 22.7467L171.977 20.926ZM157.071 23.304L158.485 24.7182L157.071 23.304ZM154.345 27.422L152.497 26.656L152.489 26.6754L152.481 26.6949L154.345 27.422ZM154.345 37.978L152.481 38.7051L152.489 38.7246L152.497 38.744L154.345 37.978ZM157.071 42.096L155.656 43.5102H155.656L157.071 42.096ZM171.977 44.532L172.804 46.3527L172.821 46.345L172.838 46.337L171.977 44.532ZM176.617 40.878L177.973 39.4084L176.448 38.001L175.098 39.5764L176.617 40.878ZM182.649 46.446L184.195 47.7139L185.391 46.2554L184.005 44.9764L182.649 46.446ZM175.457 51.84L174.663 50.0043L174.654 50.0083L175.457 51.84ZM165.887 51.696C162.972 51.696 160.291 51.229 157.825 50.3131L156.432 54.0629C159.38 55.1577 162.537 55.696 165.887 55.696V51.696ZM157.857 50.3255C155.422 49.3725 153.328 48.042 151.554 46.3378L148.783 49.2222C150.953 51.3073 153.499 52.9155 156.4 54.0505L157.857 50.3255ZM151.554 46.3378C149.775 44.628 148.378 42.6225 147.36 40.3055L143.698 41.9145C144.922 44.7015 146.618 47.1426 148.783 49.2222L151.554 46.3378ZM147.37 40.3289C146.402 38.0481 145.905 35.5138 145.905 32.7H141.905C141.905 35.9956 142.49 39.0679 143.687 41.8911L147.37 40.3289ZM145.905 32.7C145.905 29.8862 146.402 27.3519 147.37 25.0711L143.687 23.5089C142.49 26.3321 141.905 29.4044 141.905 32.7H145.905ZM147.36 25.0945C148.378 22.7775 149.775 20.772 151.554 19.0622L148.783 16.1778C146.618 18.2574 144.922 20.6985 143.698 23.4855L147.36 25.0945ZM151.54 19.0756C153.352 17.3681 155.463 16.0567 157.892 15.1415L156.481 11.3985C153.574 12.494 151.006 14.0826 148.797 16.1644L151.54 19.0756ZM157.915 15.1325C160.328 14.1886 162.997 13.704 165.945 13.704V9.704C162.551 9.704 159.382 10.2634 156.458 11.4075L157.915 15.1325ZM165.945 13.704C169.226 13.704 172.118 14.28 174.654 15.3917L176.26 11.7283C173.15 10.3653 169.701 9.704 165.945 9.704V13.704ZM174.684 15.4047C177.249 16.4794 179.379 18.0623 181.102 20.1639L184.195 17.6281C182.051 15.0124 179.387 13.0379 176.229 11.7153L174.684 15.4047ZM181.292 17.4264L175.26 22.9944L177.973 25.9336L184.005 20.3656L181.292 17.4264ZM178.119 23.1444C176.565 21.3735 174.795 20.0101 172.804 19.1053L171.149 22.7467C172.561 23.3885 173.885 24.3838 175.114 25.7836L178.119 23.1444ZM172.838 19.121C170.85 18.1722 168.697 17.708 166.409 17.708V21.708C168.141 21.708 169.701 22.0558 171.115 22.731L172.838 19.121ZM166.409 17.708C164.293 17.708 162.303 18.0541 160.462 18.7728L161.916 22.4992C163.244 21.9806 164.735 21.708 166.409 21.708V17.708ZM160.462 18.7728C158.628 19.4882 157.019 20.5269 155.656 21.8898L158.485 24.7182C159.442 23.7611 160.578 23.0211 161.916 22.4992L160.462 18.7728ZM155.656 21.8898C154.302 23.2439 153.25 24.8396 152.497 26.656L156.192 28.188C156.754 26.8337 157.519 25.6841 158.485 24.7182L155.656 21.8898ZM152.481 26.6949C151.761 28.5413 151.417 30.5515 151.417 32.7H155.417C155.417 30.9819 155.691 29.4733 156.208 28.1491L152.481 26.6949ZM151.417 32.7C151.417 34.8485 151.761 36.8587 152.481 38.7051L156.208 37.2509C155.691 35.9267 155.417 34.4181 155.417 32.7H151.417ZM152.497 38.744C153.25 40.5604 154.302 42.1561 155.656 43.5102L158.485 40.6818C157.519 39.7159 156.754 38.5663 156.192 37.212L152.497 38.744ZM155.656 43.5102C157.019 44.8731 158.628 45.9118 160.461 46.6272L161.916 42.9008C160.578 42.3789 159.442 41.6389 158.485 40.6818L155.656 43.5102ZM160.461 46.6272C162.303 47.3459 164.293 47.692 166.409 47.692V43.692C164.735 43.692 163.244 43.4194 161.916 42.9008L160.461 46.6272ZM166.409 47.692C168.683 47.692 170.824 47.253 172.804 46.3527L171.149 42.7113C169.727 43.3577 168.156 43.692 166.409 43.692V47.692ZM172.838 46.337C174.823 45.3897 176.586 43.9869 178.135 42.1796L175.098 39.5764C173.863 41.0171 172.533 42.0503 171.115 42.727L172.838 46.337ZM175.26 42.3476L181.292 47.9156L184.005 44.9764L177.973 39.4084L175.26 42.3476ZM181.102 45.1781C179.375 47.2846 177.238 48.8906 174.663 50.0043L176.25 53.6757C179.398 52.3147 182.055 50.3247 184.195 47.7139L181.102 45.1781ZM174.654 50.0083C172.12 51.1188 169.21 51.696 165.887 51.696V55.696C169.678 55.696 173.148 55.0359 176.26 53.6717L174.654 50.0083ZM215.047 53L213.367 54.0863L213.958 55H215.047V53ZM202.403 33.454L201.37 31.7413L199.602 32.8072L200.723 34.5403L202.403 33.454ZM210.001 28.872L211.676 27.7803L210.622 26.1617L208.968 27.1593L210.001 28.872ZM225.719 53V55H229.408L227.394 51.9083L225.719 53ZM188.657 53H186.657V55H188.657V53ZM188.657 12.4V10.4H186.657V12.4H188.657ZM197.995 12.4H199.995V10.4H197.995V12.4ZM197.995 53V55H199.995V53H197.995ZM195.269 36.644H193.269V38.644H195.269V36.644ZM195.269 28.814V26.814H193.269V28.814H195.269ZM209.421 28.814H211.421V26.814H209.421V28.814ZM209.421 36.644V38.644H211.421V36.644H209.421ZM210.871 33.744L210.631 35.7296L211.843 35.876L212.527 34.8648L210.871 33.744ZM202.229 32.7L200.551 31.6117L198.806 34.3011L201.989 34.6856L202.229 32.7ZM215.395 12.4V10.4H214.308L213.717 11.3117L215.395 12.4ZM225.313 12.4L226.969 13.5208L229.081 10.4H225.313V12.4ZM216.726 51.9137L204.082 32.3677L200.723 34.5403L213.367 54.0863L216.726 51.9137ZM203.435 35.1667L211.033 30.5847L208.968 27.1593L201.37 31.7413L203.435 35.1667ZM208.325 29.9637L224.043 54.0917L227.394 51.9083L211.676 27.7803L208.325 29.9637ZM225.719 51H215.047V55H225.719V51ZM190.657 53V12.4H186.657V53H190.657ZM188.657 14.4H197.995V10.4H188.657V14.4ZM195.995 12.4V53H199.995V12.4H195.995ZM197.995 51H188.657V55H197.995V51ZM197.269 36.644V28.814H193.269V36.644H197.269ZM195.269 30.814H209.421V26.814H195.269V30.814ZM207.421 28.814V36.644H211.421V28.814H207.421ZM209.421 34.644H195.269V38.644H209.421V34.644ZM211.11 31.7584L202.468 30.7144L201.989 34.6856L210.631 35.7296L211.11 31.7584ZM203.907 33.7883L217.073 13.4883L213.717 11.3117L200.551 31.6117L203.907 33.7883ZM215.395 14.4H225.313V10.4H215.395V14.4ZM223.656 11.2792L209.214 32.6232L212.527 34.8648L226.969 13.5208L223.656 11.2792ZM240.448 52.13L239.729 53.996L239.737 53.9994L240.448 52.13ZM233.372 47.722L231.987 49.1642L231.994 49.1709L232.001 49.1776L233.372 47.722ZM228.732 41.052L226.891 41.8331L226.896 41.8449L226.901 41.8565L228.732 41.052ZM228.732 24.348L226.901 23.5435L226.896 23.5551L226.891 23.5669L228.732 24.348ZM233.43 17.678L232.059 16.2224V16.2224L233.43 17.678ZM240.506 13.27L239.787 11.404V11.404L240.506 13.27ZM258.138 13.27L257.409 15.1325L257.419 15.136L258.138 13.27ZM265.156 17.678L263.771 19.1202L263.778 19.1269L263.785 19.1336L265.156 17.678ZM269.854 24.348L268.023 25.1526L268.028 25.1629L269.854 24.348ZM269.854 41.11L271.685 41.9146L271.69 41.9044L269.854 41.11ZM265.156 47.78L266.527 49.2364L266.528 49.2356L265.156 47.78ZM258.138 52.13L257.419 50.264L257.409 50.2675L258.138 52.13ZM254.31 44.764L253.568 42.907L253.559 42.9103L253.551 42.9137L254.31 44.764ZM258.37 42.096L256.956 40.6818L258.37 42.096ZM261.038 37.978L259.191 37.212L259.183 37.2314L259.175 37.2509L261.038 37.978ZM261.038 27.422L259.175 28.1491L259.183 28.1686L259.191 28.188L261.038 27.422ZM258.37 23.304L256.932 24.694L256.944 24.7062L256.956 24.7182L258.37 23.304ZM254.368 20.636L253.626 22.493L254.368 20.636ZM244.276 20.636L243.534 18.779L243.525 18.7823L243.517 18.7857L244.276 20.636ZM240.274 23.304L241.689 24.7182L240.274 23.304ZM237.548 27.422L235.701 26.656L235.693 26.6754L235.685 26.6949L237.548 27.422ZM237.548 37.978L235.679 38.69L235.69 38.7172L235.701 38.744L237.548 37.978ZM240.216 42.096L238.778 43.486L238.79 43.4982L238.802 43.5102L240.216 42.096ZM244.276 44.764L245.019 42.907L244.276 44.764ZM249.38 51.696C246.391 51.696 243.657 51.2106 241.159 50.2606L239.737 53.9994C242.73 55.1374 245.951 55.696 249.38 55.696V51.696ZM241.168 50.264C238.691 49.3085 236.557 47.9745 234.744 46.2664L232.001 49.1776C234.209 51.2588 236.792 52.8635 239.729 53.996L241.168 50.264ZM234.758 46.2798C232.978 44.57 231.581 42.5645 230.563 40.2475L226.901 41.8565C228.126 44.6435 229.822 47.0846 231.987 49.1642L234.758 46.2798ZM230.573 40.2709C229.605 37.987 229.108 35.4714 229.108 32.7H225.108C225.108 35.9606 225.695 39.013 226.891 41.8331L230.573 40.2709ZM229.108 32.7C229.108 29.9286 229.605 27.413 230.573 25.1291L226.891 23.5669C225.695 26.387 225.108 29.4394 225.108 32.7H229.108ZM230.563 25.1525C231.578 22.8439 232.988 20.8426 234.802 19.1336L232.059 16.2224C229.851 18.3028 228.13 20.7481 226.901 23.5435L230.563 25.1525ZM234.802 19.1336C236.615 17.4255 238.749 16.0915 241.226 15.136L239.787 11.404C236.85 12.5365 234.267 14.1412 232.059 16.2224L234.802 19.1336ZM241.226 15.136C243.683 14.1885 246.375 13.704 249.322 13.704V9.704C245.928 9.704 242.743 10.2635 239.787 11.404L241.226 15.136ZM249.322 13.704C252.312 13.704 255 14.1896 257.41 15.1325L258.867 11.4075C255.941 10.2624 252.751 9.704 249.322 9.704V13.704ZM257.419 15.136C259.893 16.0903 262.002 17.4207 263.771 19.1202L266.542 16.2358C264.367 14.146 261.797 12.5377 258.858 11.404L257.419 15.136ZM263.785 19.1336C265.598 20.8426 267.009 22.8439 268.023 25.1525L271.685 23.5435C270.457 20.7481 268.736 18.3028 266.528 16.2224L263.785 19.1336ZM268.028 25.1629C269.023 27.3929 269.536 29.8951 269.536 32.7H273.536C273.536 29.3956 272.928 26.3298 271.681 23.5331L268.028 25.1629ZM269.536 32.7C269.536 35.4617 269.024 37.9925 268.019 40.3156L271.69 41.9044C272.927 39.0462 273.536 35.9703 273.536 32.7H269.536ZM268.023 40.3055C267.009 42.6141 265.598 44.6154 263.785 46.3244L266.528 49.2356C268.736 47.1552 270.457 44.7099 271.685 41.9145L268.023 40.3055ZM263.786 46.3236C262.015 47.9899 259.901 49.3064 257.419 50.264L258.858 53.996C261.789 52.8656 264.353 51.2821 266.527 49.2364L263.786 46.3236ZM257.409 50.2675C254.997 51.2114 252.328 51.696 249.38 51.696V55.696C252.774 55.696 255.943 55.1366 258.867 53.9925L257.409 50.2675ZM249.322 47.692C251.37 47.692 253.294 47.3426 255.069 46.6143L253.551 42.9137C252.31 43.4228 250.909 43.692 249.322 43.692V47.692ZM255.053 46.621C256.847 45.9033 258.43 44.8647 259.785 43.5102L256.956 40.6818C255.991 41.6472 254.867 42.3874 253.568 42.907L255.053 46.621ZM259.785 43.5102C261.147 42.1473 262.186 40.5382 262.901 38.7051L259.175 37.2509C258.653 38.5885 257.913 39.7247 256.956 40.6818L259.785 43.5102ZM262.886 38.744C263.656 36.887 264.024 34.8631 264.024 32.7H260.024C260.024 34.4036 259.736 35.8983 259.191 37.212L262.886 38.744ZM264.024 32.7C264.024 30.5369 263.656 28.513 262.886 26.656L259.191 28.188C259.736 29.5017 260.024 30.9964 260.024 32.7H264.024ZM262.901 26.6949C262.186 24.8618 261.147 23.2527 259.785 21.8898L256.956 24.7182C257.913 25.6753 258.653 26.8115 259.175 28.1491L262.901 26.6949ZM259.808 21.914C258.484 20.5443 256.911 19.499 255.111 18.779L253.626 22.493C254.919 23.0103 256.014 23.7437 256.932 24.694L259.808 21.914ZM255.111 18.779C253.307 18.0576 251.371 17.708 249.322 17.708V21.708C250.908 21.708 252.336 21.977 253.626 22.493L255.111 18.779ZM249.322 17.708C247.274 17.708 245.337 18.0576 243.534 18.779L245.019 22.493C246.309 21.977 247.736 21.708 249.322 21.708V17.708ZM243.517 18.7857C241.762 19.5055 240.206 20.5437 238.86 21.8898L241.689 24.7182C242.662 23.7443 243.774 23.0038 245.035 22.4863L243.517 18.7857ZM238.86 21.8898C237.506 23.2439 236.454 24.8396 235.701 26.656L239.396 28.188C239.957 26.8337 240.723 25.6841 241.689 24.7182L238.86 21.8898ZM235.685 26.6949C234.965 28.5413 234.62 30.5515 234.62 32.7H238.62C238.62 30.9819 238.895 29.4733 239.411 28.1491L235.685 26.6949ZM234.62 32.7C234.62 34.816 234.967 36.8189 235.679 38.69L239.417 37.266C238.893 35.8891 238.62 34.3733 238.62 32.7H234.62ZM235.701 38.744C236.448 40.5463 237.472 42.1343 238.778 43.486L241.654 40.706C240.718 39.7377 239.963 38.5804 239.396 37.212L235.701 38.744ZM238.802 43.5102C240.157 44.8647 241.739 45.9033 243.534 46.621L245.019 42.907C243.72 42.3874 242.596 41.6472 241.631 40.6818L238.802 43.5102ZM243.534 46.621C245.337 47.3424 247.274 47.692 249.322 47.692V43.692C247.736 43.692 246.309 43.423 245.019 42.907L243.534 46.621ZM278.775 53H276.775V55H278.775V53ZM278.775 12.4V10.4H276.775V12.4H278.775ZM288.113 12.4H290.113V10.4H288.113V12.4ZM288.113 38.848H286.113V44.9632L289.726 40.0298L288.113 38.848ZM307.485 12.4V10.4H306.47L305.871 11.2182L307.485 12.4ZM316.301 12.4H318.301V10.4H316.301V12.4ZM316.301 53V55H318.301V53H316.301ZM307.021 53H305.021V55H307.021V53ZM307.021 26.61H309.021V20.5056L305.408 25.4265L307.021 26.61ZM287.649 53V55H288.661L289.261 54.1835L287.649 53ZM288.983 7.47L287.67 8.97921L287.678 8.98619L287.686 8.99308L288.983 7.47ZM286.257 0.915997V-1.084H284.229L284.257 0.943391L286.257 0.915997ZM292.695 0.915997L294.694 0.860463L294.64 -1.084H292.695V0.915997ZM293.913 4.106L292.535 5.556L292.572 5.59122L292.611 5.62451L293.913 4.106ZM301.047 4.106L302.348 5.62451L302.368 5.60706L302.388 5.58907L301.047 4.106ZM302.323 0.915997V-1.084H300.377L300.323 0.860461L302.323 0.915997ZM308.761 0.915997L310.76 0.943391L310.788 -1.084H308.761V0.915997ZM305.977 7.47L307.273 8.99308V8.99308L305.977 7.47ZM280.775 53V12.4H276.775V53H280.775ZM278.775 14.4H288.113V10.4H278.775V14.4ZM286.113 12.4V38.848H290.113V12.4H286.113ZM289.726 40.0298L309.098 13.5818L305.871 11.2182L286.499 37.6662L289.726 40.0298ZM307.485 14.4H316.301V10.4H307.485V14.4ZM314.301 12.4V53H318.301V12.4H314.301ZM316.301 51H307.021V55H316.301V51ZM309.021 53V26.61H305.021V53H309.021ZM305.408 25.4265L286.036 51.8165L289.261 54.1835L308.633 27.7935L305.408 25.4265ZM287.649 51H278.775V55H287.649V51ZM297.509 7.79C293.841 7.79 291.569 7.04481 290.279 5.94692L287.686 8.99308C290.031 10.9885 293.443 11.79 297.509 11.79V7.79ZM290.295 5.96079C289.03 4.8613 288.289 3.26471 288.256 0.888602L284.257 0.943391C284.301 4.21262 285.377 6.98536 287.67 8.97921L290.295 5.96079ZM286.257 2.916H292.695V-1.084H286.257V2.916ZM290.695 0.97153C290.744 2.72427 291.271 4.35563 292.535 5.556L295.29 2.656C295.007 2.38704 294.722 1.89173 294.694 0.860463L290.695 0.97153ZM292.611 5.62451C293.925 6.75101 295.669 7.15 297.509 7.15V3.15C296.177 3.15 295.524 2.85299 295.214 2.58748L292.611 5.62451ZM297.509 7.15C299.324 7.15 301.042 6.74444 302.348 5.62451L299.745 2.58748C299.428 2.85956 298.787 3.15 297.509 3.15V7.15ZM302.388 5.58907C303.708 4.39484 304.272 2.75237 304.322 0.971531L300.323 0.860461C300.295 1.86363 300.009 2.34782 299.705 2.62293L302.388 5.58907ZM302.323 2.916H308.761V-1.084H302.323V2.916ZM306.761 0.888602C306.728 3.25051 305.977 4.84315 304.68 5.94692L307.273 8.99308C309.611 7.00351 310.715 4.22682 310.76 0.943391L306.761 0.888602ZM304.68 5.94692C303.387 7.04725 301.131 7.79 297.509 7.79V11.79C301.542 11.79 304.931 10.9861 307.273 8.99308L304.68 5.94692Z" fill="#292929" mask="url(#path-1-outside-1_3_134)"/>
</svg>
